<svg xmlns="http://www.w3.org/2000/svg" xmlns:xlink="http://www.w3.org/1999/xlink" width="615" zoomAndPan="magnify" viewBox="0 0 461.25 343.500003" height="458" preserveAspectRatio="xMidYMid meet" version="1.0"><defs><g/><clipPath id="fedf07411b"><path d="M 135.320312 179.730469 L 224.976562 179.730469 L 224.976562 282.347656 L 135.320312 282.347656 Z M 135.320312 179.730469 " clip-rule="nonzero"/></clipPath><clipPath id="14046e02d8"><path d="M 224.976562 230.964844 L 135.320312 282.195312 L 135.320312 179.730469 Z M 224.976562 230.964844 " clip-rule="nonzero"/></clipPath><clipPath id="42889566fc"><path d="M 135.320312 179.730469 L 224.976562 179.730469 L 224.976562 282.195312 L 135.320312 282.195312 Z M 135.320312 179.730469 " clip-rule="nonzero"/></clipPath><clipPath id="cbe9c90fa8"><path d="M 224.976562 230.960938 L 135.320312 282.195312 L 135.320312 179.730469 Z M 224.976562 230.960938 " clip-rule="nonzero"/></clipPath><clipPath id="e275282ebe"><path d="M 135.320312 116.121094 L 224.976562 116.121094 L 224.976562 218.734375 L 135.320312 218.734375 Z M 135.320312 116.121094 " clip-rule="nonzero"/></clipPath><clipPath id="17aefdca40"><path d="M 224.976562 167.355469 L 135.320312 218.585938 L 135.320312 116.121094 Z M 224.976562 167.355469 " clip-rule="nonzero"/></clipPath><clipPath id="33b383182a"><path d="M 135.320312 116.121094 L 224.976562 116.121094 L 224.976562 218.582031 L 135.320312 218.582031 Z M 135.320312 116.121094 " clip-rule="nonzero"/></clipPath><clipPath id="a30fc4f391"><path d="M 224.976562 167.351562 L 135.320312 218.582031 L 135.320312 116.121094 Z M 224.976562 167.351562 " clip-rule="nonzero"/></clipPath></defs><g fill="#ffffff" fill-opacity="1"><g transform="translate(83.638327, 218.29993)"><g><path d="M 75.71875 6.8125 C 66.65625 6.195312 58.304688 3.925781 50.671875 0 C 43.046875 -3.925781 36.425781 -9.097656 30.8125 -15.515625 C 25.195312 -21.941406 20.953125 -29.203125 18.078125 -37.296875 C 15.210938 -45.390625 14.085938 -53.96875 14.703125 -63.03125 C 15.304688 -72.09375 17.570312 -80.4375 21.5 -88.0625 C 25.4375 -95.6875 30.613281 -102.304688 37.03125 -107.921875 C 43.457031 -113.535156 50.710938 -117.773438 58.796875 -120.640625 C 66.878906 -123.515625 75.453125 -124.644531 84.515625 -124.03125 C 96.691406 -123.21875 107.601562 -119.425781 117.25 -112.65625 C 126.90625 -105.894531 134.234375 -97.367188 139.234375 -87.078125 L 127.078125 -81.265625 C 123.234375 -89.492188 117.46875 -96.25 109.78125 -101.53125 C 102.101562 -106.8125 93.378906 -109.78125 83.609375 -110.4375 C 74.117188 -111.082031 65.285156 -109.363281 57.109375 -105.28125 C 48.941406 -101.207031 42.257812 -95.398438 37.0625 -87.859375 C 31.863281 -80.328125 28.941406 -71.75 28.296875 -62.125 C 27.640625 -52.488281 29.382812 -43.582031 33.53125 -35.40625 C 37.675781 -27.226562 43.519531 -20.570312 51.0625 -15.4375 C 58.613281 -10.3125 67.132812 -7.425781 76.625 -6.78125 C 86.394531 -6.125 95.441406 -7.9375 103.765625 -12.21875 C 112.097656 -16.5 118.71875 -22.378906 123.625 -29.859375 L 134.875 -22.5 C 128.539062 -12.976562 120.140625 -5.507812 109.671875 -0.09375 C 99.210938 5.320312 87.894531 7.625 75.71875 6.8125 Z M 75.71875 6.8125 "/></g></g></g><g clip-path="url(#fedf07411b)"><g clip-path="url(#14046e02d8)"><path fill="#172806" d="M 224.976562 179.730469 L 224.976562 282.347656 L 135.320312 282.347656 L 135.320312 179.730469 Z M 224.976562 179.730469 " fill-opacity="1" fill-rule="nonzero"/></g></g><g clip-path="url(#42889566fc)"><g clip-path="url(#cbe9c90fa8)"><path stroke-linecap="butt" transform="matrix(0, 1.26887, -1.26887, 0, 224.975557, 179.732131)" fill="none" stroke-linejoin="miter" d="M 40.373567 -0.000792046 L 80.751522 70.657551 L -0.00131028 70.657551 Z M 40.373567 -0.000792046 " stroke="#ffffff" stroke-width="18.883762" stroke-opacity="1" stroke-miterlimit="4"/></g></g><g clip-path="url(#e275282ebe)"><g clip-path="url(#17aefdca40)"><path fill="#172806" d="M 224.976562 116.121094 L 224.976562 218.734375 L 135.320312 218.734375 L 135.320312 116.121094 Z M 224.976562 116.121094 " fill-opacity="1" fill-rule="nonzero"/></g></g><g clip-path="url(#33b383182a)"><g clip-path="url(#a30fc4f391)"><path stroke-linecap="butt" transform="matrix(0.0000000022146, 1.26887, -1.26887, 0.0000000022146, 224.975557, 116.121726)" fill="none" stroke-linejoin="miter" d="M 40.374378 -0.000791976 L 80.749255 70.657552 L -0.000498665 70.657551 Z M 40.374378 -0.000791976 " stroke="#ffffff" stroke-width="18.883762" stroke-opacity="1" stroke-miterlimit="4"/></g></g><g fill="#ffffff" fill-opacity="1"><g transform="translate(230.518014, 182.89661)"><g><path d="M 17.546875 -31.125 C 19.835938 -31.125 22.09375 -30.648438 24.3125 -29.703125 C 26.53125 -28.765625 28.414062 -27.503906 29.96875 -25.921875 L 25.4375 -20.546875 C 24.4375 -21.773438 23.238281 -22.75 21.84375 -23.46875 C 20.445312 -24.1875 19.054688 -24.546875 17.671875 -24.546875 C 15.234375 -24.546875 13.191406 -23.6875 11.546875 -21.96875 C 9.898438 -20.25 9.078125 -18.128906 9.078125 -15.609375 C 9.078125 -13.015625 9.898438 -10.851562 11.546875 -9.125 C 13.191406 -7.394531 15.234375 -6.53125 17.671875 -6.53125 C 18.960938 -6.53125 20.304688 -6.851562 21.703125 -7.5 C 23.097656 -8.144531 24.34375 -9.023438 25.4375 -10.140625 L 30.015625 -5.296875 C 28.335938 -3.585938 26.359375 -2.21875 24.078125 -1.1875 C 21.804688 -0.15625 19.539062 0.359375 17.28125 0.359375 C 12.632812 0.359375 8.769531 -1.15625 5.6875 -4.1875 C 2.601562 -7.21875 1.0625 -10.992188 1.0625 -15.515625 C 1.0625 -19.953125 2.628906 -23.660156 5.765625 -26.640625 C 8.910156 -29.628906 12.835938 -31.125 17.546875 -31.125 Z M 17.546875 -31.125 "/></g></g></g><g fill="#ffffff" fill-opacity="1"><g transform="translate(261.020737, 182.89661)"><g><path d="M 31.5625 0 L 23.71875 0 L 23.71875 -11.984375 L 10.9375 -11.984375 L 10.9375 0 L 3.078125 0 L 3.078125 -30.859375 L 10.9375 -30.859375 L 10.9375 -18.15625 L 23.71875 -18.15625 L 23.71875 -30.859375 L 31.5625 -30.859375 Z M 31.5625 0 "/></g></g></g><g fill="#ffffff" fill-opacity="1"><g transform="translate(295.66688, 182.89661)"><g><path d="M 23.578125 -5.6875 L 10.09375 -5.6875 L 7.84375 0 L -0.21875 0 L 13.09375 -30.859375 L 21.15625 -30.859375 L 34.15625 0 L 25.78125 0 Z M 21.296875 -11.640625 L 16.875 -23.046875 L 12.390625 -11.640625 Z M 21.296875 -11.640625 "/></g></g></g><g fill="#ffffff" fill-opacity="1"><g transform="translate(329.607758, 182.89661)"><g><path d="M 26.671875 -24.546875 L 17.359375 -24.546875 L 17.359375 0 L 9.515625 0 L 9.515625 -24.546875 L 0.3125 -24.546875 L 0.3125 -30.90625 L 26.671875 -30.90625 Z M 26.671875 -24.546875 "/></g></g></g><g fill="#ffffff" fill-opacity="1"><g transform="translate(356.54008, 182.89661)"><g><path d="M 26.671875 -24.546875 L 17.359375 -24.546875 L 17.359375 0 L 9.515625 0 L 9.515625 -24.546875 L 0.3125 -24.546875 L 0.3125 -30.90625 L 26.671875 -30.90625 Z M 26.671875 -24.546875 "/></g></g></g><g fill="#ffffff" fill-opacity="1"><g transform="translate(383.472402, 182.89661)"><g><path d="M 27.234375 -24.6875 L 10.9375 -24.6875 L 10.9375 -18.5625 L 25.65625 -18.5625 L 25.65625 -12.390625 L 10.9375 -12.390625 L 10.9375 -6.171875 L 27.71875 -6.171875 L 27.71875 0 L 3.078125 0 L 3.078125 -30.859375 L 27.234375 -30.859375 Z M 27.234375 -24.6875 "/></g></g></g><g fill="#ffffff" fill-opacity="1"><g transform="translate(413.181688, 182.89661)"><g><path d="M 21.6875 0 L 17.109375 -8.6875 L 10.9375 -8.6875 L 10.9375 0 L 3.078125 0 L 3.078125 -30.859375 L 16.875 -30.859375 C 20.96875 -30.859375 24.128906 -29.921875 26.359375 -28.046875 C 28.585938 -26.179688 29.703125 -23.53125 29.703125 -20.09375 C 29.703125 -15.332031 27.835938 -12.03125 24.109375 -10.1875 L 30.59375 0 Z M 10.9375 -14.859375 L 16.875 -14.859375 C 18.582031 -14.859375 19.90625 -15.28125 20.84375 -16.125 C 21.789062 -16.976562 22.265625 -18.210938 22.265625 -19.828125 C 22.265625 -21.421875 21.789062 -22.628906 20.84375 -23.453125 C 19.90625 -24.273438 18.582031 -24.6875 16.875 -24.6875 L 10.9375 -24.6875 Z M 10.9375 -14.859375 "/></g></g></g><g fill="#ffffff" fill-opacity="1"><g transform="translate(256.299197, 224.926954)"><g><path d="M 2.890625 -28.96875 L 16.59375 -28.96875 C 19.84375 -28.96875 22.425781 -28.3125 24.34375 -27 C 26.257812 -25.6875 27.21875 -23.925781 27.21875 -21.71875 C 27.21875 -20.207031 26.773438 -18.878906 25.890625 -17.734375 C 25.015625 -16.585938 23.804688 -15.789062 22.265625 -15.34375 C 24.078125 -14.988281 25.519531 -14.148438 26.59375 -12.828125 C 27.675781 -11.503906 28.21875 -9.90625 28.21875 -8.03125 C 28.21875 -5.570312 27.21875 -3.617188 25.21875 -2.171875 C 23.21875 -0.722656 20.507812 0 17.09375 0 L 2.890625 0 Z M 10.21875 -23.328125 L 10.21875 -17.375 L 16.171875 -17.375 C 17.253906 -17.375 18.109375 -17.640625 18.734375 -18.171875 C 19.367188 -18.710938 19.6875 -19.453125 19.6875 -20.390625 C 19.6875 -21.304688 19.367188 -22.023438 18.734375 -22.546875 C 18.109375 -23.066406 17.253906 -23.328125 16.171875 -23.328125 Z M 10.21875 -12.078125 L 10.21875 -5.671875 L 16.171875 -5.671875 C 17.554688 -5.671875 18.640625 -5.957031 19.421875 -6.53125 C 20.210938 -7.113281 20.609375 -7.914062 20.609375 -8.9375 C 20.609375 -9.90625 20.210938 -10.671875 19.421875 -11.234375 C 18.640625 -11.796875 17.554688 -12.078125 16.171875 -12.078125 Z M 10.21875 -12.078125 "/></g></g></g><g fill="#ffffff" fill-opacity="1"><g transform="translate(285.878774, 224.926954)"><g><path d="M 20.359375 0 L 16.046875 -8.15625 L 10.265625 -8.15625 L 10.265625 0 L 2.890625 0 L 2.890625 -28.96875 L 15.84375 -28.96875 C 19.675781 -28.96875 22.640625 -28.085938 24.734375 -26.328125 C 26.835938 -24.578125 27.890625 -22.085938 27.890625 -18.859375 C 27.890625 -14.398438 26.132812 -11.300781 22.625 -9.5625 L 28.71875 0 Z M 10.265625 -13.9375 L 15.84375 -13.9375 C 17.445312 -13.9375 18.6875 -14.335938 19.5625 -15.140625 C 20.445312 -15.941406 20.890625 -17.101562 20.890625 -18.625 C 20.890625 -20.113281 20.445312 -21.242188 19.5625 -22.015625 C 18.6875 -22.785156 17.445312 -23.171875 15.84375 -23.171875 L 10.265625 -23.171875 Z M 10.265625 -13.9375 "/></g></g></g><g fill="#ffffff" fill-opacity="1"><g transform="translate(315.830687, 224.926954)"><g><path d="M 10.265625 0 L 2.890625 0 L 2.890625 -28.96875 L 10.265625 -28.96875 Z M 10.265625 0 "/></g></g></g><g fill="#ffffff" fill-opacity="1"><g transform="translate(328.986367, 224.926954)"><g><path d="M 2.890625 -28.96875 L 15.34375 -28.96875 C 19.894531 -28.96875 23.597656 -27.628906 26.453125 -24.953125 C 29.304688 -22.273438 30.734375 -18.785156 30.734375 -14.484375 C 30.734375 -10.203125 29.285156 -6.71875 26.390625 -4.03125 C 23.492188 -1.34375 19.71875 0 15.0625 0 L 2.890625 0 Z M 10.265625 -23.09375 L 10.265625 -5.875 L 15.515625 -5.875 C 17.773438 -5.875 19.628906 -6.664062 21.078125 -8.25 C 22.523438 -9.84375 23.25 -11.90625 23.25 -14.4375 C 23.25 -16.976562 22.488281 -19.054688 20.96875 -20.671875 C 19.457031 -22.285156 17.53125 -23.09375 15.1875 -23.09375 Z M 10.265625 -23.09375 "/></g></g></g><g fill="#ffffff" fill-opacity="1"><g transform="translate(360.717191, 224.926954)"><g><path d="M 22.140625 -14.734375 L 28.5 -14.734375 L 28.5 -3.4375 C 26.9375 -2.332031 25.039062 -1.425781 22.8125 -0.71875 C 20.59375 -0.0195312 18.476562 0.328125 16.46875 0.328125 C 12.050781 0.328125 8.367188 -1.082031 5.421875 -3.90625 C 2.472656 -6.738281 1 -10.265625 1 -14.484375 C 1 -18.671875 2.515625 -22.171875 5.546875 -24.984375 C 8.578125 -27.796875 12.382812 -29.203125 16.96875 -29.203125 C 19.113281 -29.203125 21.25 -28.816406 23.375 -28.046875 C 25.5 -27.273438 27.304688 -26.226562 28.796875 -24.90625 L 24.65625 -19.90625 C 23.613281 -20.863281 22.398438 -21.625 21.015625 -22.1875 C 19.640625 -22.757812 18.273438 -23.046875 16.921875 -23.046875 C 14.546875 -23.046875 12.550781 -22.222656 10.9375 -20.578125 C 9.320312 -18.941406 8.515625 -16.910156 8.515625 -14.484375 C 8.515625 -12.023438 9.328125 -9.96875 10.953125 -8.3125 C 12.585938 -6.65625 14.601562 -5.828125 17 -5.828125 C 18.550781 -5.828125 20.265625 -6.296875 22.140625 -7.234375 Z M 22.140625 -14.734375 "/></g></g></g><g fill="#ffffff" fill-opacity="1"><g transform="translate(391.455124, 224.926954)"><g><path d="M 25.5625 -23.171875 L 10.265625 -23.171875 L 10.265625 -17.421875 L 24.078125 -17.421875 L 24.078125 -11.625 L 10.265625 -11.625 L 10.265625 -5.796875 L 26.03125 -5.796875 L 26.03125 0 L 2.890625 0 L 2.890625 -28.96875 L 25.5625 -28.96875 Z M 25.5625 -23.171875 "/></g></g></g></svg>