<svg xmlns="http://www.w3.org/2000/svg" xmlns:xlink="http://www.w3.org/1999/xlink" width="846" zoomAndPan="magnify" viewBox="0 0 634.5 343.499995" height="458" preserveAspectRatio="xMidYMid meet" version="1.0"><defs><g/><clipPath id="7a9a4ff012"><path d="M 135.550781 179.738281 L 225.222656 179.738281 L 225.222656 282.371094 L 135.550781 282.371094 Z M 135.550781 179.738281 " clip-rule="nonzero"/></clipPath><clipPath id="3dfbcf44b4"><path d="M 225.222656 230.976562 L 135.550781 282.21875 L 135.550781 179.738281 Z M 225.222656 230.976562 " clip-rule="nonzero"/></clipPath><clipPath id="7b1bd2555a"><path d="M 135.554688 179.738281 L 225.21875 179.738281 L 225.21875 282.210938 L 135.554688 282.210938 Z M 135.554688 179.738281 " clip-rule="nonzero"/></clipPath><clipPath id="302cc850e5"><path d="M 225.21875 230.972656 L 135.554688 282.210938 L 135.554688 179.738281 Z M 225.21875 230.972656 " clip-rule="nonzero"/></clipPath><clipPath id="7ecf55bd50"><path d="M 135.550781 116.117188 L 225.222656 116.117188 L 225.222656 218.75 L 135.550781 218.75 Z M 135.550781 116.117188 " clip-rule="nonzero"/></clipPath><clipPath id="b2ff5d290a"><path d="M 225.222656 167.355469 L 135.550781 218.597656 L 135.550781 116.117188 Z M 225.222656 167.355469 " clip-rule="nonzero"/></clipPath><clipPath id="f6ddbf417f"><path d="M 135.554688 116.117188 L 225.21875 116.117188 L 225.21875 218.589844 L 135.554688 218.589844 Z M 135.554688 116.117188 " clip-rule="nonzero"/></clipPath><clipPath id="3367c01f31"><path d="M 225.21875 167.351562 L 135.554688 218.589844 L 135.554688 116.117188 Z M 225.21875 167.351562 " clip-rule="nonzero"/></clipPath><clipPath id="4b02de709e"><path d="M 164.570312 197.699219 L 169.703125 197.699219 L 169.703125 202.703125 L 164.570312 202.703125 Z M 164.570312 197.699219 " clip-rule="nonzero"/></clipPath><clipPath id="305b0be52a"><path d="M 164.597656 200.207031 C 167.59375 199.15625 168.640625 199.53125 168.792969 199.980469 C 169.015625 200.429688 168.417969 201.777344 167.894531 202.003906 C 167.292969 202.226562 165.347656 201.40625 165.195312 200.804688 C 164.972656 200.132812 166.394531 198.558594 167.144531 198.109375 C 167.667969 197.734375 168.492188 197.585938 168.941406 197.808594 C 169.390625 198.109375 169.691406 199.15625 169.691406 199.757812 C 169.617188 200.355469 169.242188 200.957031 168.792969 201.40625 C 168.191406 201.929688 167.070312 202.828125 166.394531 202.675781 C 165.648438 202.453125 164.597656 200.207031 164.597656 200.207031 " clip-rule="nonzero"/></clipPath><clipPath id="efee677ac7"><path d="M 160.148438 199.054688 L 165.902344 199.054688 L 165.902344 205.671875 L 160.148438 205.671875 Z M 160.148438 199.054688 " clip-rule="nonzero"/></clipPath><clipPath id="6a9316a12d"><path d="M 160.179688 202.675781 C 162.652344 201.703125 161.378906 200.957031 161.453125 200.429688 C 161.527344 199.980469 162.351562 199.082031 162.949219 199.082031 C 163.773438 199.15625 165.796875 201.554688 165.871094 202.453125 C 165.871094 203.128906 165.195312 203.875 164.597656 204.027344 C 164 204.25 162.5 203.652344 162.125 203.050781 C 161.675781 202.378906 161.753906 200.355469 162.277344 200.054688 C 162.800781 199.757812 164.898438 200.878906 165.421875 201.554688 C 165.722656 201.929688 165.945312 202.453125 165.796875 202.828125 C 165.648438 203.351562 164.824219 204.101562 164.296875 204.101562 C 163.699219 204.101562 162.949219 203.128906 162.425781 202.527344 C 161.976562 201.929688 161.378906 201.03125 161.453125 200.429688 C 161.601562 199.90625 162.351562 199.082031 162.949219 199.082031 C 163.699219 199.082031 165.273438 200.730469 165.496094 201.628906 C 165.722656 202.304688 165.570312 203.128906 165.121094 203.726562 C 164.375 204.625 161.675781 205.972656 160.929688 205.597656 C 160.253906 205.300781 160.179688 202.675781 160.179688 202.675781 " clip-rule="nonzero"/></clipPath><clipPath id="3c07351193"><path d="M 159.625 203.042969 L 161.921875 203.042969 L 161.921875 206.167969 L 159.625 206.167969 Z M 159.625 203.042969 " clip-rule="nonzero"/></clipPath><clipPath id="6af8d57702"><path d="M 159.65625 203.050781 C 161.902344 203.128906 162.125 205.222656 161.753906 205.75 C 161.527344 206.121094 160.628906 206.273438 160.253906 206.046875 C 159.804688 205.75 159.65625 203.050781 159.65625 203.050781 " clip-rule="nonzero"/></clipPath><clipPath id="fca32b04e4"><path d="M 157.238281 203.222656 L 161.046875 203.222656 L 161.046875 206.667969 L 157.238281 206.667969 Z M 157.238281 203.222656 " clip-rule="nonzero"/></clipPath><clipPath id="245e90e06f"><path d="M 158.15625 205.597656 C 160.105469 204.925781 159.355469 203.578125 159.582031 203.5 C 159.730469 203.425781 161.003906 204.324219 161.003906 204.847656 C 161.078125 205.300781 160.402344 206.273438 159.878906 206.421875 C 159.355469 206.648438 158.082031 205.75 158.007812 205.898438 C 158.007812 205.972656 158.832031 206.648438 158.832031 206.570312 C 158.832031 206.570312 157.707031 205.75 157.707031 205.300781 C 157.707031 204.773438 159.28125 203.800781 159.207031 203.652344 C 159.207031 203.578125 158.53125 203.652344 158.457031 203.875 C 158.308594 204.25 160.179688 206.121094 159.953125 206.421875 C 159.804688 206.722656 158.832031 206.722656 158.53125 206.496094 C 158.082031 206.199219 157.707031 205.449219 157.707031 204.925781 C 157.78125 204.550781 158.15625 204.027344 158.53125 203.800781 C 158.980469 203.578125 159.804688 203.5 160.253906 203.652344 C 160.628906 203.875 161.003906 204.398438 161.003906 204.847656 C 161.078125 205.300781 160.703125 206.121094 160.253906 206.347656 C 159.730469 206.648438 158.53125 206.496094 158.007812 206.199219 C 157.558594 205.898438 157.257812 205.148438 157.257812 204.625 C 157.257812 204.175781 157.632812 203.5 158.082031 203.351562 C 158.683594 203.050781 160.480469 203.425781 160.554688 203.800781 C 160.628906 204.175781 158.15625 205.597656 158.15625 205.597656 " clip-rule="nonzero"/></clipPath><clipPath id="c2190fcd4f"><path d="M 136.878906 216.667969 L 141.089844 216.667969 L 141.089844 219.726562 L 136.878906 219.726562 Z M 136.878906 216.667969 " clip-rule="nonzero"/></clipPath><clipPath id="5a2104aae7"><path d="M 136.886719 216.683594 C 139.136719 216.605469 141.082031 217.28125 141.082031 217.730469 C 141.082031 218.328125 138.238281 219.976562 137.488281 219.679688 C 136.886719 219.378906 136.886719 216.683594 136.886719 216.683594 " clip-rule="nonzero"/></clipPath><clipPath id="5d6f50e01a"><path d="M 134.933594 211 L 146.339844 211 L 146.339844 219.648438 L 134.933594 219.648438 Z M 134.933594 211 " clip-rule="nonzero"/></clipPath><clipPath id="aecd5b7ac6"><path d="M 146.324219 213.835938 C 140.484375 216.15625 137.1875 219.976562 135.988281 219.601562 C 135.316406 219.378906 134.714844 217.65625 135.089844 216.757812 C 135.539062 215.335938 139.507812 213.6875 141.382812 212.636719 C 142.730469 211.964844 144.300781 210.765625 145.125 211.066406 C 145.800781 211.363281 146.324219 213.835938 146.324219 213.835938 " clip-rule="nonzero"/></clipPath><clipPath id="9ad21f741d"><path d="M 144.746094 210.609375 L 146.644531 210.609375 L 146.644531 213.699219 L 144.746094 213.699219 Z M 144.746094 210.609375 " clip-rule="nonzero"/></clipPath><clipPath id="68852724f4"><path d="M 146.625 213.6875 C 143.179688 211.441406 145.425781 210.390625 146.023438 210.691406 C 146.550781 210.992188 146.625 213.6875 146.625 213.6875 " clip-rule="nonzero"/></clipPath><clipPath id="9d9e81654d"><path d="M 145.085938 210.636719 L 147.152344 210.636719 L 147.152344 213.644531 L 145.085938 213.644531 Z M 145.085938 210.636719 " clip-rule="nonzero"/></clipPath><clipPath id="36a5dc383e"><path d="M 147.148438 213.613281 C 145.203125 213.835938 144.902344 211.664062 145.203125 211.140625 C 145.351562 210.839844 146.023438 210.542969 146.324219 210.691406 C 146.847656 210.992188 147.148438 213.613281 147.148438 213.613281 " clip-rule="nonzero"/></clipPath><clipPath id="4edbdf1580"><path d="M 146.003906 210.589844 L 146.925781 210.589844 L 146.925781 213.699219 L 146.003906 213.699219 Z M 146.003906 210.589844 " clip-rule="nonzero"/></clipPath><clipPath id="e102b1d259"><path d="M 146.023438 213.6875 C 146.175781 210.542969 146.625 210.464844 146.773438 210.691406 C 147.074219 210.992188 146.773438 213.6875 146.773438 213.6875 " clip-rule="nonzero"/></clipPath><clipPath id="c59f31fabe"><path d="M 143.917969 210.570312 L 147.390625 210.570312 L 147.390625 213.414062 L 143.917969 213.414062 Z M 143.917969 210.570312 " clip-rule="nonzero"/></clipPath><clipPath id="c2eb7f8d5a"><path d="M 147.375 213.386719 C 145.652344 213.386719 143.929688 212.1875 143.929688 211.738281 C 144.003906 211.289062 145.574219 210.390625 146.175781 210.617188 C 146.773438 210.839844 147.375 213.386719 147.375 213.386719 " clip-rule="nonzero"/></clipPath><clipPath id="df1e83b011"><path d="M 144.292969 210.597656 L 146.925781 210.597656 L 146.925781 213.632812 L 144.292969 213.632812 Z M 144.292969 210.597656 " clip-rule="nonzero"/></clipPath><clipPath id="91761b9070"><path d="M 146.921875 213.613281 C 144.378906 213.761719 144.078125 211.664062 144.453125 211.140625 C 144.675781 210.765625 145.652344 210.464844 146.023438 210.691406 C 146.550781 210.992188 146.921875 213.613281 146.921875 213.613281 " clip-rule="nonzero"/></clipPath><clipPath id="b85a0d8f6c"><path d="M 133.097656 204.148438 L 138.230469 204.148438 L 138.230469 218.527344 L 133.097656 218.527344 Z M 133.097656 204.148438 " clip-rule="nonzero"/></clipPath><clipPath id="58f975d910"><path d="M 136.664062 205.824219 C 136.140625 212.863281 137.261719 215.707031 136.886719 217.058594 C 136.664062 217.730469 136.066406 218.40625 135.539062 218.480469 C 135.164062 218.628906 134.640625 218.328125 134.265625 218.03125 C 133.816406 217.507812 133.59375 216.605469 133.445312 215.484375 C 133.070312 213.386719 132.917969 207.621094 133.445312 205.898438 C 133.667969 205.148438 133.96875 204.625 134.417969 204.476562 C 134.867188 204.324219 135.691406 204.550781 136.066406 204.847656 C 136.289062 205.074219 136.515625 205.824219 136.4375 205.824219 C 136.363281 205.898438 135.242188 204.550781 135.242188 204.550781 C 135.242188 204.476562 136.066406 204.925781 136.4375 205.449219 C 137.1875 206.421875 138.535156 209.71875 138.160156 211.066406 C 137.863281 211.964844 136.589844 213.238281 135.914062 213.011719 C 134.867188 212.789062 133.070312 206.421875 133.59375 205.148438 C 133.816406 204.625 134.640625 204.324219 135.089844 204.398438 C 135.617188 204.476562 136.140625 205.074219 136.4375 205.824219 C 137.113281 207.621094 135.765625 213.835938 136.140625 215.632812 C 136.363281 216.308594 136.964844 216.605469 136.886719 217.058594 C 136.8125 217.582031 135.765625 218.480469 135.242188 218.480469 C 134.792969 218.480469 134.265625 218.03125 133.96875 217.355469 C 133.367188 216.234375 133.367188 212.488281 133.59375 211.214844 C 133.742188 210.542969 134.191406 210.390625 134.191406 209.792969 C 134.265625 208.894531 133.21875 207.320312 133.292969 206.273438 C 133.367188 205.449219 133.667969 204.324219 134.117188 204.175781 C 134.640625 203.949219 136.664062 205.824219 136.664062 205.824219 " clip-rule="nonzero"/></clipPath><clipPath id="b0839eb05d"><path d="M 134.820312 115.507812 L 136.296875 115.507812 L 136.296875 116.726562 L 134.820312 116.726562 Z M 134.820312 115.507812 " clip-rule="nonzero"/></clipPath><clipPath id="d5a19c9c55"><path d="M 136.289062 115.953125 C 135.613281 116.925781 135.015625 116.777344 134.867188 116.554688 C 134.792969 116.328125 134.867188 115.730469 135.089844 115.578125 C 135.242188 115.429688 136.066406 115.65625 136.066406 115.65625 " clip-rule="nonzero"/></clipPath></defs><g fill="#ffffff" fill-opacity="1"><g transform="translate(83.86447, 218.307956)"><g><path d="M 75.734375 6.8125 C 66.671875 6.195312 58.320312 3.925781 50.6875 0 C 43.050781 -3.925781 36.425781 -9.097656 30.8125 -15.515625 C 25.195312 -21.941406 20.953125 -29.203125 18.078125 -37.296875 C 15.210938 -45.390625 14.085938 -53.96875 14.703125 -63.03125 C 15.304688 -72.09375 17.570312 -80.4375 21.5 -88.0625 C 25.4375 -95.695312 30.613281 -102.320312 37.03125 -107.9375 C 43.457031 -113.550781 50.71875 -117.796875 58.8125 -120.671875 C 66.90625 -123.546875 75.484375 -124.675781 84.546875 -124.0625 C 96.722656 -123.238281 107.632812 -119.445312 117.28125 -112.6875 C 126.925781 -105.925781 134.25 -97.394531 139.25 -87.09375 L 127.109375 -81.28125 C 123.253906 -89.507812 117.484375 -96.265625 109.796875 -101.546875 C 102.117188 -106.828125 93.394531 -109.796875 83.625 -110.453125 C 74.132812 -111.097656 65.300781 -109.382812 57.125 -105.3125 C 48.945312 -101.238281 42.257812 -95.429688 37.0625 -87.890625 C 31.863281 -80.347656 28.941406 -71.757812 28.296875 -62.125 C 27.640625 -52.5 29.382812 -43.59375 33.53125 -35.40625 C 37.675781 -27.226562 43.523438 -20.570312 51.078125 -15.4375 C 58.628906 -10.3125 67.148438 -7.425781 76.640625 -6.78125 C 86.410156 -6.125 95.457031 -7.9375 103.78125 -12.21875 C 112.113281 -16.5 118.738281 -22.378906 123.65625 -29.859375 L 134.890625 -22.5 C 128.554688 -12.976562 120.15625 -5.503906 109.6875 -0.078125 C 99.226562 5.335938 87.910156 7.632812 75.734375 6.8125 Z M 75.734375 6.8125 "/></g></g></g><g clip-path="url(#7a9a4ff012)"><g clip-path="url(#3dfbcf44b4)"><path fill="#172806" d="M 225.222656 179.738281 L 225.222656 282.371094 L 135.550781 282.371094 L 135.550781 179.738281 Z M 225.222656 179.738281 " fill-opacity="1" fill-rule="nonzero"/></g></g><g clip-path="url(#7b1bd2555a)"><g clip-path="url(#302cc850e5)"><path stroke-linecap="butt" transform="matrix(0, 0.74891, -0.74891, 0, 225.218993, 179.737557)" fill="none" stroke-linejoin="miter" d="M 68.412907 0.00032402 L 136.830063 119.726435 L 0.000967393 119.726435 Z M 68.412907 0.00032402 " stroke="#ffffff" stroke-width="32" stroke-opacity="1" stroke-miterlimit="4"/></g></g><g clip-path="url(#7ecf55bd50)"><g clip-path="url(#b2ff5d290a)"><path fill="#172806" d="M 225.222656 116.117188 L 225.222656 218.75 L 135.550781 218.75 L 135.550781 116.117188 Z M 225.222656 116.117188 " fill-opacity="1" fill-rule="nonzero"/></g></g><g clip-path="url(#f6ddbf417f)"><g clip-path="url(#3367c01f31)"><path stroke-linecap="butt" transform="matrix(0.00000000130709, 0.74891, -0.74891, 0.00000000130709, 225.218962, 116.116328)" fill="none" stroke-linejoin="miter" d="M 68.413087 0.00028254 L 136.830242 119.726393 L 0.00114684 119.726393 Z M 68.413087 0.00028254 " stroke="#ffffff" stroke-width="32" stroke-opacity="1" stroke-miterlimit="4"/></g></g><g fill="#ffffff" fill-opacity="1"><g transform="translate(232.916833, 188.050509)"><g><path d="M 30.640625 -54.359375 C 34.648438 -54.359375 38.59375 -53.535156 42.46875 -51.890625 C 46.34375 -50.253906 49.640625 -48.050781 52.359375 -45.28125 L 44.421875 -35.875 C 42.679688 -38.03125 40.59375 -39.738281 38.15625 -41 C 35.71875 -42.257812 33.289062 -42.890625 30.875 -42.890625 C 26.613281 -42.890625 23.046875 -41.382812 20.171875 -38.375 C 17.296875 -35.375 15.859375 -31.671875 15.859375 -27.265625 C 15.859375 -22.742188 17.296875 -18.96875 20.171875 -15.9375 C 23.046875 -12.90625 26.613281 -11.390625 30.875 -11.390625 C 33.132812 -11.390625 35.484375 -11.953125 37.921875 -13.078125 C 40.359375 -14.210938 42.523438 -15.753906 44.421875 -17.703125 L 52.4375 -9.234375 C 49.507812 -6.265625 46.054688 -3.878906 42.078125 -2.078125 C 38.097656 -0.285156 34.132812 0.609375 30.1875 0.609375 C 22.070312 0.609375 15.316406 -2.03125 9.921875 -7.3125 C 4.535156 -12.601562 1.84375 -19.203125 1.84375 -27.109375 C 1.84375 -34.859375 4.585938 -41.335938 10.078125 -46.546875 C 15.578125 -51.753906 22.429688 -54.359375 30.640625 -54.359375 Z M 30.640625 -54.359375 "/></g></g></g><g fill="#ffffff" fill-opacity="1"><g transform="translate(286.19716, 188.050509)"><g><path d="M 55.125 0 L 41.421875 0 L 41.421875 -20.9375 L 19.09375 -20.9375 L 19.09375 0 L 5.390625 0 L 5.390625 -53.90625 L 19.09375 -53.90625 L 19.09375 -31.71875 L 41.421875 -31.71875 L 41.421875 -53.90625 L 55.125 -53.90625 Z M 55.125 0 "/></g></g></g><g fill="#ffffff" fill-opacity="1"><g transform="translate(346.714964, 188.050509)"><g><path d="M 41.1875 -9.9375 L 17.640625 -9.9375 L 13.703125 0 L -0.390625 0 L 22.875 -53.90625 L 36.953125 -53.90625 L 59.671875 0 L 45.046875 0 Z M 37.1875 -20.328125 L 29.484375 -40.265625 L 21.640625 -20.328125 Z M 37.1875 -20.328125 "/></g></g></g><g fill="#ffffff" fill-opacity="1"><g transform="translate(406.000854, 188.050509)"><g><path d="M 46.578125 -42.890625 L 30.34375 -42.890625 L 30.34375 0 L 16.625 0 L 16.625 -42.890625 L 0.53125 -42.890625 L 0.53125 -53.984375 L 46.578125 -53.984375 Z M 46.578125 -42.890625 "/></g></g></g><g fill="#ffffff" fill-opacity="1"><g transform="translate(453.044617, 188.050509)"><g><path d="M 46.578125 -42.890625 L 30.34375 -42.890625 L 30.34375 0 L 16.625 0 L 16.625 -42.890625 L 0.53125 -42.890625 L 0.53125 -53.984375 L 46.578125 -53.984375 Z M 46.578125 -42.890625 "/></g></g></g><g fill="#ffffff" fill-opacity="1"><g transform="translate(500.088381, 188.050509)"><g><path d="M 47.59375 -43.125 L 19.09375 -43.125 L 19.09375 -32.421875 L 44.8125 -32.421875 L 44.8125 -21.640625 L 19.09375 -21.640625 L 19.09375 -10.78125 L 48.4375 -10.78125 L 48.4375 0 L 5.390625 0 L 5.390625 -53.90625 L 47.59375 -53.90625 Z M 47.59375 -43.125 "/></g></g></g><g fill="#ffffff" fill-opacity="1"><g transform="translate(551.98278, 188.050509)"><g><path d="M 37.890625 0 L 29.875 -15.171875 L 19.09375 -15.171875 L 19.09375 0 L 5.390625 0 L 5.390625 -53.90625 L 29.484375 -53.90625 C 36.617188 -53.90625 42.132812 -52.273438 46.03125 -49.015625 C 49.9375 -45.753906 51.890625 -41.117188 51.890625 -35.109375 C 51.890625 -26.796875 48.632812 -21.019531 42.125 -17.78125 L 53.4375 0 Z M 19.09375 -25.953125 L 29.484375 -25.953125 C 32.460938 -25.953125 34.773438 -26.695312 36.421875 -28.1875 C 38.066406 -29.675781 38.890625 -31.832031 38.890625 -34.65625 C 38.890625 -37.425781 38.066406 -39.53125 36.421875 -40.96875 C 34.773438 -42.40625 32.460938 -43.125 29.484375 -43.125 L 19.09375 -43.125 Z M 19.09375 -25.953125 "/></g></g></g><g fill="#ffffff" fill-opacity="1"><g transform="translate(277.94983, 261.466542)"><g><path d="M 5.0625 -50.59375 L 28.984375 -50.59375 C 34.660156 -50.59375 39.171875 -49.445312 42.515625 -47.15625 C 45.867188 -44.863281 47.546875 -41.789062 47.546875 -37.9375 C 47.546875 -35.289062 46.773438 -32.96875 45.234375 -30.96875 C 43.691406 -28.96875 41.570312 -27.582031 38.875 -26.8125 C 42.0625 -26.1875 44.59375 -24.71875 46.46875 -22.40625 C 48.34375 -20.09375 49.28125 -17.296875 49.28125 -14.015625 C 49.28125 -9.734375 47.535156 -6.328125 44.046875 -3.796875 C 40.554688 -1.265625 35.820312 0 29.84375 0 L 5.0625 0 Z M 17.84375 -40.765625 L 17.84375 -30.359375 L 28.25 -30.359375 C 30.132812 -30.359375 31.628906 -30.828125 32.734375 -31.765625 C 33.847656 -32.703125 34.40625 -33.988281 34.40625 -35.625 C 34.40625 -37.21875 33.847656 -38.472656 32.734375 -39.390625 C 31.628906 -40.304688 30.132812 -40.765625 28.25 -40.765625 Z M 17.84375 -21.109375 L 17.84375 -9.90625 L 28.25 -9.90625 C 30.664062 -9.90625 32.554688 -10.410156 33.921875 -11.421875 C 35.296875 -12.429688 35.984375 -13.828125 35.984375 -15.609375 C 35.984375 -17.296875 35.296875 -18.632812 33.921875 -19.625 C 32.554688 -20.613281 30.664062 -21.109375 28.25 -21.109375 Z M 17.84375 -21.109375 "/></g></g></g><g fill="#ffffff" fill-opacity="1"><g transform="translate(329.617652, 261.466542)"><g><path d="M 35.5625 0 L 28.046875 -14.234375 L 17.921875 -14.234375 L 17.921875 0 L 5.0625 0 L 5.0625 -50.59375 L 27.671875 -50.59375 C 34.367188 -50.59375 39.546875 -49.0625 43.203125 -46 C 46.867188 -42.9375 48.703125 -38.585938 48.703125 -32.953125 C 48.703125 -25.148438 45.644531 -19.726562 39.53125 -16.6875 L 50.15625 0 Z M 17.921875 -24.359375 L 27.671875 -24.359375 C 30.472656 -24.359375 32.644531 -25.054688 34.1875 -26.453125 C 35.726562 -27.847656 36.5 -29.867188 36.5 -32.515625 C 36.5 -35.117188 35.726562 -37.09375 34.1875 -38.4375 C 32.644531 -39.789062 30.472656 -40.46875 27.671875 -40.46875 L 17.921875 -40.46875 Z M 17.921875 -24.359375 "/></g></g></g><g fill="#ffffff" fill-opacity="1"><g transform="translate(381.935851, 261.466542)"><g><path d="M 17.921875 0 L 5.0625 0 L 5.0625 -50.59375 L 17.921875 -50.59375 Z M 17.921875 0 "/></g></g></g><g fill="#ffffff" fill-opacity="1"><g transform="translate(404.915399, 261.466542)"><g><path d="M 5.0625 -50.59375 L 26.8125 -50.59375 C 34.757812 -50.59375 41.222656 -48.253906 46.203125 -43.578125 C 51.191406 -38.898438 53.6875 -32.804688 53.6875 -25.296875 C 53.6875 -17.828125 51.15625 -11.742188 46.09375 -7.046875 C 41.039062 -2.347656 34.445312 0 26.3125 0 L 5.0625 0 Z M 17.921875 -40.328125 L 17.921875 -10.265625 L 27.09375 -10.265625 C 31.050781 -10.265625 34.289062 -11.648438 36.8125 -14.421875 C 39.34375 -17.191406 40.609375 -20.789062 40.609375 -25.21875 C 40.609375 -29.65625 39.285156 -33.28125 36.640625 -36.09375 C 33.992188 -38.914062 30.617188 -40.328125 26.515625 -40.328125 Z M 17.921875 -40.328125 "/></g></g></g><g fill="#ffffff" fill-opacity="1"><g transform="translate(460.34089, 261.466542)"><g><path d="M 38.65625 -25.734375 L 49.796875 -25.734375 L 49.796875 -6 C 47.046875 -4.070312 43.726562 -2.492188 39.84375 -1.265625 C 35.96875 -0.0351562 32.273438 0.578125 28.765625 0.578125 C 21.054688 0.578125 14.625 -1.890625 9.46875 -6.828125 C 4.3125 -11.765625 1.734375 -17.921875 1.734375 -25.296875 C 1.734375 -32.617188 4.382812 -38.734375 9.6875 -43.640625 C 14.988281 -48.554688 21.632812 -51.015625 29.625 -51.015625 C 33.382812 -51.015625 37.117188 -50.335938 40.828125 -48.984375 C 44.535156 -47.640625 47.691406 -45.8125 50.296875 -43.5 L 43.078125 -34.765625 C 41.242188 -36.453125 39.117188 -37.785156 36.703125 -38.765625 C 34.296875 -39.753906 31.914062 -40.25 29.5625 -40.25 C 25.414062 -40.25 21.929688 -38.816406 19.109375 -35.953125 C 16.296875 -33.085938 14.890625 -29.535156 14.890625 -25.296875 C 14.890625 -21.003906 16.3125 -17.410156 19.15625 -14.515625 C 22 -11.628906 25.515625 -10.1875 29.703125 -10.1875 C 32.398438 -10.1875 35.382812 -11.003906 38.65625 -12.640625 Z M 38.65625 -25.734375 "/></g></g></g><g fill="#ffffff" fill-opacity="1"><g transform="translate(514.03206, 261.466542)"><g><path d="M 44.65625 -40.46875 L 17.921875 -40.46875 L 17.921875 -30.421875 L 42.0625 -30.421875 L 42.0625 -20.3125 L 17.921875 -20.3125 L 17.921875 -10.125 L 45.453125 -10.125 L 45.453125 0 L 5.0625 0 L 5.0625 -50.59375 L 44.65625 -50.59375 Z M 44.65625 -40.46875 "/></g></g></g><g clip-path="url(#4b02de709e)"><g clip-path="url(#305b0be52a)"><path fill="#ffffff" d="M 161.601562 194.8125 L 172.671875 194.8125 L 172.671875 205.671875 L 161.601562 205.671875 Z M 161.601562 194.8125 " fill-opacity="1" fill-rule="nonzero"/></g></g><g clip-path="url(#efee677ac7)"><g clip-path="url(#6a9316a12d)"><path fill="#ffffff" d="M 157.183594 196.085938 L 168.867188 196.085938 L 168.867188 208.589844 L 157.183594 208.589844 Z M 157.183594 196.085938 " fill-opacity="1" fill-rule="nonzero"/></g></g><g clip-path="url(#3c07351193)"><g clip-path="url(#6af8d57702)"><path fill="#ffffff" d="M 156.660156 199.757812 L 164.824219 199.757812 L 164.824219 209.035156 L 156.660156 209.035156 Z M 156.660156 199.757812 " fill-opacity="1" fill-rule="nonzero"/></g></g><g clip-path="url(#fca32b04e4)"><g clip-path="url(#245e90e06f)"><path fill="#ffffff" d="M 154.261719 200.355469 L 164.058594 200.355469 L 164.058594 209.640625 L 154.261719 209.640625 Z M 154.261719 200.355469 " fill-opacity="1" fill-rule="nonzero"/></g></g><g clip-path="url(#c2190fcd4f)"><g clip-path="url(#5a2104aae7)"><path fill="#ffffff" d="M 133.894531 213.535156 L 144.148438 213.535156 L 144.148438 222.75 L 133.894531 222.75 Z M 133.894531 213.535156 " fill-opacity="1" fill-rule="nonzero"/></g></g><g clip-path="url(#5d6f50e01a)"><g clip-path="url(#aecd5b7ac6)"><path fill="#ffffff" d="M 132.09375 208.070312 L 149.40625 208.070312 L 149.40625 222.597656 L 132.09375 222.597656 Z M 132.09375 208.070312 " fill-opacity="1" fill-rule="nonzero"/></g></g><g clip-path="url(#9ad21f741d)"><g clip-path="url(#68852724f4)"><path fill="#ffffff" d="M 140.183594 207.695312 L 149.695312 207.695312 L 149.695312 216.683594 L 140.183594 216.683594 Z M 140.183594 207.695312 " fill-opacity="1" fill-rule="nonzero"/></g></g><g clip-path="url(#9d9e81654d)"><g clip-path="url(#36a5dc383e)"><path fill="#ffffff" d="M 142.207031 207.695312 L 150.21875 207.695312 L 150.21875 217.117188 L 142.207031 217.117188 Z M 142.207031 207.695312 " fill-opacity="1" fill-rule="nonzero"/></g></g><g clip-path="url(#4edbdf1580)"><g clip-path="url(#e102b1d259)"><path fill="#ffffff" d="M 143.03125 207.695312 L 149.769531 207.695312 L 149.769531 216.753906 L 143.03125 216.753906 Z M 143.03125 207.695312 " fill-opacity="1" fill-rule="nonzero"/></g></g><g clip-path="url(#c59f31fabe)"><g clip-path="url(#c2eb7f8d5a)"><path fill="#ffffff" d="M 140.933594 207.621094 L 150.375 207.621094 L 150.375 216.605469 L 140.933594 216.605469 Z M 140.933594 207.621094 " fill-opacity="1" fill-rule="nonzero"/></g></g><g clip-path="url(#df1e83b011)"><g clip-path="url(#91761b9070)"><path fill="#ffffff" d="M 141.457031 207.695312 L 149.996094 207.695312 L 149.996094 217.132812 L 141.457031 217.132812 Z M 141.457031 207.695312 " fill-opacity="1" fill-rule="nonzero"/></g></g><g clip-path="url(#b85a0d8f6c)"><g clip-path="url(#58f975d910)"><path fill="#ffffff" d="M 130.296875 201.179688 L 141.15625 201.179688 L 141.15625 221.539062 L 130.296875 221.539062 Z M 130.296875 201.179688 " fill-opacity="1" fill-rule="nonzero"/></g></g><g clip-path="url(#b0839eb05d)"><g clip-path="url(#d5a19c9c55)"><path fill="#ffffff" d="M 131.871094 112.582031 L 139.277344 112.582031 L 139.277344 119.847656 L 131.871094 119.847656 Z M 131.871094 112.582031 " fill-opacity="1" fill-rule="nonzero"/></g></g></svg>