<svg xmlns="http://www.w3.org/2000/svg" xmlns:xlink="http://www.w3.org/1999/xlink" width="15384" zoomAndPan="magnify" viewBox="0 0 11538 2206.499934" height="2942" preserveAspectRatio="xMidYMid meet" version="1.0"><defs><g/><clipPath id="ac8b16cc11"><path d="M 1.308594 828.722656 L 1082.550781 828.722656 L 1082.550781 1910.007812 L 1.308594 1910.007812 Z M 1.308594 828.722656 " clip-rule="nonzero"/></clipPath><clipPath id="2e8100a84c"><path d="M 125.992188 813.074219 L 1096.703125 813.074219 L 1096.703125 1783.785156 L 125.992188 1783.785156 Z M 125.992188 813.074219 " clip-rule="nonzero"/></clipPath><clipPath id="fdbca69c32"><path d="M 261.109375 0 L 1082.675781 0 L 1082.675781 1643.136719 L 261.109375 1643.136719 Z M 261.109375 0 " clip-rule="nonzero"/></clipPath><clipPath id="4beb171f9b"><path d="M 410.609375 142.65625 L 1097 142.65625 L 1097 1514.507812 L 410.609375 1514.507812 Z M 410.609375 142.65625 " clip-rule="nonzero"/></clipPath><clipPath id="9c3d921c71"><path d="M 544.253906 283.148438 L 1621.679688 283.148438 L 1621.679688 1360.570312 L 544.253906 1360.570312 Z M 544.253906 283.148438 " clip-rule="nonzero"/></clipPath><clipPath id="fd138170bf"><path d="M 1082.605469 282.84375 C 1082.6875 282.84375 1082.816406 282.84375 1082.898438 282.84375 C 1082.980469 282.84375 1083.109375 282.84375 1083.191406 282.84375 C 1380.53125 283.136719 1621.46875 524.285156 1621.46875 821.707031 L 1083.191406 821.707031 L 1083.191406 1360.570312 C 785.601562 1360.570312 544.328125 1119.296875 544.328125 821.707031 C 544.328125 524.285156 785.265625 283.136719 1082.605469 282.84375 Z M 1082.605469 282.84375 " clip-rule="nonzero"/></clipPath></defs><g clip-path="url(#ac8b16cc11)"><path fill="#172806" d="M 1.308594 828.765625 C 1.308594 970.753906 29.273438 1111.355469 83.609375 1242.539062 C 137.949219 1373.71875 217.59375 1492.914062 317.996094 1593.316406 C 418.398438 1693.71875 537.59375 1773.363281 668.777344 1827.703125 C 799.957031 1882.039062 940.558594 1910.007812 1082.550781 1910.007812 L 1082.550781 828.765625 Z M 1.308594 828.765625 " fill-opacity="1" fill-rule="nonzero"/></g><g clip-path="url(#2e8100a84c)"><path fill="#ffffff" d="M 125.507812 812.589844 C 125.507812 940.128906 150.628906 1066.417969 199.4375 1184.25 C 248.246094 1302.082031 319.78125 1409.144531 409.964844 1499.328125 C 500.148438 1589.511719 607.210938 1661.050781 725.042969 1709.855469 C 842.875 1758.664062 969.164062 1783.785156 1096.703125 1783.785156 L 1096.703125 812.589844 Z M 125.507812 812.589844 " fill-opacity="1" fill-rule="nonzero"/></g><g clip-path="url(#fdbca69c32)"><path fill="#172806" d="M 261.109375 821.738281 C 261.109375 1275.566406 629.007812 1643.46875 1082.835938 1643.46875 L 1082.835938 0.0117188 C 629.007812 0.0117188 261.109375 367.914062 261.109375 821.738281 " fill-opacity="1" fill-rule="nonzero"/></g><g clip-path="url(#4beb171f9b)"><path fill="#ffffff" d="M 410.609375 828.765625 C 410.609375 1207.6875 717.792969 1514.871094 1096.71875 1514.871094 L 1096.71875 142.65625 C 717.792969 142.65625 410.609375 449.839844 410.609375 828.765625 " fill-opacity="1" fill-rule="nonzero"/></g><g clip-path="url(#9c3d921c71)"><g clip-path="url(#fd138170bf)"><path fill="#172806" d="M 1621.46875 1360.570312 L 1621.46875 283.148438 L 544.328125 283.148438 L 544.328125 1360.570312 Z M 1621.46875 1360.570312 " fill-opacity="1" fill-rule="nonzero"/></g></g><g fill="#999999" fill-opacity="1"><g transform="translate(1581.132152, 1495.408622)"><g><path d="M 527.53125 -348.828125 L 491.265625 -334.328125 L 398.296875 -468.1875 L 336.96875 -468.1875 L 336.96875 -61.984375 L 410.8125 -42.859375 L 389.0625 0 L 155.625 0 L 155.625 -36.921875 L 217.609375 -85.71875 L 217.609375 -468.1875 L 158.921875 -468.1875 L 65.9375 -334.328125 L 29.671875 -348.828125 L 29.671875 -530.171875 L 77.15625 -518.3125 L 480.0625 -518.3125 L 527.53125 -530.171875 Z M 527.53125 -348.828125 "/></g></g></g><g fill="#999999" fill-opacity="1"><g transform="translate(2138.336485, 1495.408622)"><g><path d="M 607.984375 -0.65625 L 374.546875 -0.65625 L 374.546875 -37.59375 L 436.53125 -89.6875 L 436.53125 -233.4375 L 213 -233.4375 L 213 -64.625 L 286.1875 -43.515625 L 265.09375 -0.65625 L 31.65625 -0.65625 L 31.65625 -37.59375 L 93.640625 -89.6875 L 93.640625 -455 L 20.4375 -476.109375 L 42.203125 -518.96875 L 275.640625 -518.96875 L 275.640625 -482.03125 L 213 -429.28125 L 213 -284.203125 L 436.53125 -284.203125 L 436.53125 -455 L 363.34375 -476.109375 L 385.109375 -518.96875 L 618.53125 -518.96875 L 618.53125 -482.03125 L 555.890625 -429.28125 L 555.890625 -63.96875 L 629.09375 -43.515625 Z M 607.984375 -0.65625 "/></g></g></g><g fill="#999999" fill-opacity="1"><g transform="translate(2787.858577, 1495.408622)"><g><path d="M 448.40625 0.65625 L 31.65625 0.65625 L 31.65625 -36.265625 L 93.640625 -85.0625 L 93.640625 -453.6875 L 20.4375 -475.4375 L 42.203125 -518.3125 L 441.8125 -518.3125 L 489.296875 -530.171875 L 489.296875 -362.015625 L 453.015625 -347.515625 L 371.90625 -468.1875 L 213 -468.1875 L 213 -290.140625 L 291.46875 -290.140625 L 339.609375 -364 L 376.53125 -364 L 376.53125 -172.109375 L 333.671875 -150.34375 L 290.8125 -239.375 L 213 -239.375 L 213 -50.109375 L 366.640625 -50.109375 L 459.609375 -184.640625 L 495.890625 -169.46875 L 495.890625 12.53125 Z M 448.40625 0.65625 "/></g></g></g><g fill="#999999" fill-opacity="1"><g transform="translate(3328.577484, 1495.408622)"><g/></g></g><g fill="#999999" fill-opacity="1"><g transform="translate(3512.553812, 1495.408622)"><g><path d="M 338.28125 -531.5 C 363.78125 -531.5 393.5625 -528.203125 427.625 -521.609375 C 461.695312 -515.015625 486.648438 -507.976562 502.484375 -500.5 L 502.484375 -360.046875 L 439.828125 -360.046875 C 405.984375 -423.785156 359.382812 -455.65625 300.03125 -455.65625 C 275.851562 -455.65625 253.65625 -447.960938 233.4375 -432.578125 C 213.21875 -417.191406 197.28125 -396.085938 185.625 -369.265625 C 173.976562 -342.453125 168.15625 -312.34375 168.15625 -278.9375 C 168.15625 -241.125 173.976562 -206.5 185.625 -175.0625 C 197.28125 -143.632812 214.972656 -118.578125 238.703125 -99.890625 C 262.441406 -81.210938 291.898438 -71.875 327.078125 -71.875 C 367.078125 -71.875 424.003906 -93.851562 497.859375 -137.8125 L 524.234375 -95.609375 L 402.90625 -1.3125 C 383.5625 4.394531 364.988281 8.238281 347.1875 10.21875 C 329.382812 12.195312 310.367188 13.1875 290.140625 13.1875 C 240.910156 13.1875 197.171875 1.976562 158.921875 -20.4375 C 120.671875 -42.863281 90.992188 -73.75 69.890625 -113.09375 C 48.796875 -152.4375 38.25 -197.164062 38.25 -247.28125 C 38.25 -298.71875 54.070312 -346.304688 85.71875 -390.046875 C 117.375 -433.785156 156.71875 -468.296875 203.75 -493.578125 C 250.789062 -518.859375 295.632812 -531.5 338.28125 -531.5 Z M 338.28125 -531.5 "/></g></g></g><g fill="#999999" fill-opacity="1"><g transform="translate(4064.482797, 1495.408622)"><g><path d="M 607.984375 -0.65625 L 374.546875 -0.65625 L 374.546875 -37.59375 L 436.53125 -89.6875 L 436.53125 -233.4375 L 213 -233.4375 L 213 -64.625 L 286.1875 -43.515625 L 265.09375 -0.65625 L 31.65625 -0.65625 L 31.65625 -37.59375 L 93.640625 -89.6875 L 93.640625 -455 L 20.4375 -476.109375 L 42.203125 -518.96875 L 275.640625 -518.96875 L 275.640625 -482.03125 L 213 -429.28125 L 213 -284.203125 L 436.53125 -284.203125 L 436.53125 -455 L 363.34375 -476.109375 L 385.109375 -518.96875 L 618.53125 -518.96875 L 618.53125 -482.03125 L 555.890625 -429.28125 L 555.890625 -63.96875 L 629.09375 -43.515625 Z M 607.984375 -0.65625 "/></g></g></g><g fill="#999999" fill-opacity="1"><g transform="translate(4714.004937, 1495.408622)"><g><path d="M 586.21875 0 L 340.921875 0 L 340.921875 -36.921875 L 412.796875 -79.796875 L 372.578125 -178.046875 L 168.8125 -178.046875 L 132.546875 -89.6875 L 233.4375 -42.859375 L 212.328125 0 L -0.65625 0 L -0.65625 -36.921875 L 70.5625 -90.34375 L 239.375 -497.203125 L 353.453125 -530.828125 L 540.71875 -76.5 L 607.984375 -42.859375 Z M 271.6875 -426.640625 L 189.90625 -228.8125 L 352.125 -228.8125 Z M 271.6875 -426.640625 "/></g></g></g><g fill="#999999" fill-opacity="1"><g transform="translate(5318.027572, 1495.408622)"><g><path d="M 527.53125 -348.828125 L 491.265625 -334.328125 L 398.296875 -468.1875 L 336.96875 -468.1875 L 336.96875 -61.984375 L 410.8125 -42.859375 L 389.0625 0 L 155.625 0 L 155.625 -36.921875 L 217.609375 -85.71875 L 217.609375 -468.1875 L 158.921875 -468.1875 L 65.9375 -334.328125 L 29.671875 -348.828125 L 29.671875 -530.171875 L 77.15625 -518.3125 L 480.0625 -518.3125 L 527.53125 -530.171875 Z M 527.53125 -348.828125 "/></g></g></g><g fill="#999999" fill-opacity="1"><g transform="translate(5875.231761, 1495.408622)"><g><path d="M 527.53125 -348.828125 L 491.265625 -334.328125 L 398.296875 -468.1875 L 336.96875 -468.1875 L 336.96875 -61.984375 L 410.8125 -42.859375 L 389.0625 0 L 155.625 0 L 155.625 -36.921875 L 217.609375 -85.71875 L 217.609375 -468.1875 L 158.921875 -468.1875 L 65.9375 -334.328125 L 29.671875 -348.828125 L 29.671875 -530.171875 L 77.15625 -518.3125 L 480.0625 -518.3125 L 527.53125 -530.171875 Z M 527.53125 -348.828125 "/></g></g></g><g fill="#999999" fill-opacity="1"><g transform="translate(6432.43595, 1495.408622)"><g><path d="M 448.40625 0.65625 L 31.65625 0.65625 L 31.65625 -36.265625 L 93.640625 -85.0625 L 93.640625 -453.6875 L 20.4375 -475.4375 L 42.203125 -518.3125 L 441.8125 -518.3125 L 489.296875 -530.171875 L 489.296875 -362.015625 L 453.015625 -347.515625 L 371.90625 -468.1875 L 213 -468.1875 L 213 -290.140625 L 291.46875 -290.140625 L 339.609375 -364 L 376.53125 -364 L 376.53125 -172.109375 L 333.671875 -150.34375 L 290.8125 -239.375 L 213 -239.375 L 213 -50.109375 L 366.640625 -50.109375 L 459.609375 -184.640625 L 495.890625 -169.46875 L 495.890625 12.53125 Z M 448.40625 0.65625 "/></g></g></g><g fill="#999999" fill-opacity="1"><g transform="translate(6973.154952, 1495.408622)"><g><path d="M 542.046875 0 L 398.953125 0 L 271.6875 -228.15625 L 242.671875 -245.96875 L 259.15625 -278.28125 L 289.484375 -278.28125 C 313.222656 -278.28125 331.90625 -285.53125 345.53125 -300.03125 C 359.164062 -314.539062 365.984375 -334.984375 365.984375 -361.359375 C 365.984375 -392.128906 357.738281 -417.296875 341.25 -436.859375 C 324.757812 -456.429688 300.691406 -466.21875 269.046875 -466.21875 C 249.265625 -466.21875 230.800781 -460.0625 213.65625 -447.75 L 213.65625 -63.296875 L 286.84375 -42.203125 L 265.75 0.65625 L 32.3125 0.65625 L 32.3125 -36.265625 L 94.296875 -88.359375 L 94.296875 -454.34375 L 21.09375 -474.78125 L 42.859375 -517.640625 L 152.328125 -517.640625 C 190.578125 -517.640625 228.164062 -518.960938 265.09375 -521.609375 C 291.46875 -523.359375 311.25 -524.234375 324.4375 -524.234375 C 358.289062 -524.234375 388.296875 -518.1875 414.453125 -506.09375 C 440.609375 -494.007812 460.828125 -477.632812 475.109375 -456.96875 C 489.398438 -436.3125 496.546875 -413.234375 496.546875 -387.734375 C 496.546875 -356.960938 482.914062 -328.390625 455.65625 -302.015625 C 428.40625 -275.640625 395.21875 -255.859375 356.09375 -242.671875 L 408.84375 -227.5 L 494.5625 -74.515625 L 563.140625 -42.859375 Z M 542.046875 0 "/></g></g></g><g fill="#999999" fill-opacity="1"><g transform="translate(7531.677898, 1495.408622)"><g/></g></g><g fill="#999999" fill-opacity="1"><g transform="translate(7715.654418, 1495.408622)"><g><path d="M 403.5625 -282.234375 C 435.21875 -270.359375 460.164062 -252.878906 478.40625 -229.796875 C 496.65625 -206.722656 505.78125 -180.898438 505.78125 -152.328125 C 505.78125 -124.628906 493.800781 -98.582031 469.84375 -74.1875 C 445.882812 -49.789062 416.097656 -30.335938 380.484375 -15.828125 C 344.878906 -1.316406 310.8125 5.9375 278.28125 5.9375 C 256.300781 5.9375 234.757812 4.835938 213.65625 2.640625 C 178.488281 0.441406 151.234375 -0.65625 131.890625 -0.65625 L 31.65625 -0.65625 L 31.65625 -37.59375 L 93.640625 -86.390625 L 93.640625 -456.984375 L 20.4375 -476.109375 L 42.203125 -518.96875 L 131.21875 -518.96875 C 171.226562 -518.96875 210.578125 -520.285156 249.265625 -522.921875 C 279.160156 -524.679688 301.140625 -525.5625 315.203125 -525.5625 C 347.734375 -525.5625 376.414062 -519.84375 401.25 -508.40625 C 426.09375 -496.976562 445.328125 -481.484375 458.953125 -461.921875 C 472.585938 -442.359375 479.40625 -420.488281 479.40625 -396.3125 C 479.40625 -374.769531 472.476562 -354.109375 458.625 -334.328125 C 444.78125 -314.546875 426.425781 -296.960938 403.5625 -281.578125 Z M 352.796875 -361.359375 C 352.796875 -393.015625 345.320312 -418.515625 330.375 -437.859375 C 315.425781 -457.203125 293.222656 -466.875 263.765625 -466.875 C 245.742188 -466.875 228.820312 -463.132812 213 -455.65625 L 213 -286.1875 L 286.84375 -286.1875 C 308.382812 -286.1875 324.757812 -292.5625 335.96875 -305.3125 C 347.1875 -318.0625 352.796875 -336.742188 352.796875 -361.359375 Z M 297.40625 -59.34375 C 322.894531 -59.34375 343.003906 -65.9375 357.734375 -79.125 C 372.460938 -92.3125 379.828125 -110.335938 379.828125 -133.203125 C 379.828125 -163.097656 371.582031 -187.601562 355.09375 -206.71875 C 338.613281 -225.84375 314.109375 -236.285156 281.578125 -238.046875 L 213 -238.046875 L 213 -73.859375 C 238.050781 -64.179688 265.960938 -59.34375 296.734375 -59.34375 Z M 297.40625 -59.34375 "/></g></g></g><g fill="#999999" fill-opacity="1"><g transform="translate(8239.887842, 1495.408622)"><g><path d="M 542.046875 0 L 398.953125 0 L 271.6875 -228.15625 L 242.671875 -245.96875 L 259.15625 -278.28125 L 289.484375 -278.28125 C 313.222656 -278.28125 331.90625 -285.53125 345.53125 -300.03125 C 359.164062 -314.539062 365.984375 -334.984375 365.984375 -361.359375 C 365.984375 -392.128906 357.738281 -417.296875 341.25 -436.859375 C 324.757812 -456.429688 300.691406 -466.21875 269.046875 -466.21875 C 249.265625 -466.21875 230.800781 -460.0625 213.65625 -447.75 L 213.65625 -63.296875 L 286.84375 -42.203125 L 265.75 0.65625 L 32.3125 0.65625 L 32.3125 -36.265625 L 94.296875 -88.359375 L 94.296875 -454.34375 L 21.09375 -474.78125 L 42.859375 -517.640625 L 152.328125 -517.640625 C 190.578125 -517.640625 228.164062 -518.960938 265.09375 -521.609375 C 291.46875 -523.359375 311.25 -524.234375 324.4375 -524.234375 C 358.289062 -524.234375 388.296875 -518.1875 414.453125 -506.09375 C 440.609375 -494.007812 460.828125 -477.632812 475.109375 -456.96875 C 489.398438 -436.3125 496.546875 -413.234375 496.546875 -387.734375 C 496.546875 -356.960938 482.914062 -328.390625 455.65625 -302.015625 C 428.40625 -275.640625 395.21875 -255.859375 356.09375 -242.671875 L 408.84375 -227.5 L 494.5625 -74.515625 L 563.140625 -42.859375 Z M 542.046875 0 "/></g></g></g><g fill="#999999" fill-opacity="1"><g transform="translate(8798.410787, 1495.408622)"><g><path d="M 265.09375 -0.65625 L 31.65625 -0.65625 L 31.65625 -37.59375 L 93.640625 -89.6875 L 93.640625 -455 L 20.4375 -476.109375 L 42.203125 -518.96875 L 275.640625 -518.96875 L 275.640625 -482.03125 L 213 -429.28125 L 213 -63.96875 L 286.1875 -43.515625 Z M 265.09375 -0.65625 "/></g></g></g><g fill="#999999" fill-opacity="1"><g transform="translate(9105.037935, 1495.408622)"><g><path d="M 318.5 -524.90625 C 367.738281 -524.90625 411.367188 -514.019531 449.390625 -492.25 C 487.421875 -470.488281 516.875 -440.265625 537.75 -401.578125 C 558.632812 -362.898438 569.078125 -319.160156 569.078125 -270.359375 C 569.078125 -220.242188 553.359375 -173.972656 521.921875 -131.546875 C 490.492188 -89.128906 451.476562 -55.5 404.875 -30.65625 C 358.28125 -5.820312 313.882812 6.59375 271.6875 6.59375 C 251.457031 6.59375 231.453125 5.492188 211.671875 3.296875 C 178.703125 1.097656 153.425781 0 135.84375 0 L 31.65625 0 L 31.65625 -36.921875 L 93.640625 -85.71875 L 93.640625 -453.015625 L 20.4375 -475.4375 L 42.203125 -518.3125 L 135.1875 -518.3125 C 175.625 -518.3125 215.1875 -519.628906 253.875 -522.265625 C 283.769531 -524.023438 305.3125 -524.90625 318.5 -524.90625 Z M 290.8125 -54.734375 C 318.5 -54.734375 343.660156 -62.644531 366.296875 -78.46875 C 388.941406 -94.289062 406.75 -116.269531 419.71875 -144.40625 C 432.6875 -172.539062 439.171875 -204.195312 439.171875 -239.375 C 439.171875 -281.570312 432.90625 -319.707031 420.375 -353.78125 C 407.851562 -387.851562 388.734375 -415.109375 363.015625 -435.546875 C 337.296875 -455.992188 305.53125 -466.21875 267.71875 -466.21875 C 247.9375 -466.21875 229.695312 -460.941406 213 -450.390625 L 213 -67.265625 C 235.414062 -58.910156 261.128906 -54.734375 290.140625 -54.734375 Z M 290.8125 -54.734375 "/></g></g></g><g fill="#999999" fill-opacity="1"><g transform="translate(9711.698468, 1495.408622)"><g><path d="M 537.421875 -115.40625 L 555.234375 -75.828125 L 433.90625 -1.3125 C 412.363281 4.394531 391.695312 8.238281 371.90625 10.21875 C 352.125 12.195312 330.804688 13.1875 307.953125 13.1875 C 255.191406 13.1875 208.367188 1.976562 167.484375 -20.4375 C 126.609375 -42.863281 94.957031 -73.75 72.53125 -113.09375 C 50.113281 -152.4375 38.90625 -197.164062 38.90625 -247.28125 C 38.90625 -298.71875 55.609375 -346.304688 89.015625 -390.046875 C 122.429688 -433.785156 164.085938 -468.296875 213.984375 -493.578125 C 263.878906 -518.859375 311.25 -531.5 356.09375 -531.5 C 383.34375 -531.5 415.429688 -528.203125 452.359375 -521.609375 C 489.285156 -515.015625 516.320312 -507.976562 533.46875 -500.5 L 533.46875 -343.5625 L 471.484375 -343.5625 C 432.796875 -418.289062 381.582031 -455.65625 317.84375 -455.65625 C 290.144531 -455.65625 264.972656 -447.960938 242.328125 -432.578125 C 219.691406 -417.191406 201.78125 -396.085938 188.59375 -369.265625 C 175.40625 -342.453125 168.8125 -312.34375 168.8125 -278.9375 C 168.8125 -239.8125 175.296875 -203.875 188.265625 -171.125 C 201.234375 -138.375 220.90625 -112.210938 247.28125 -92.640625 C 273.65625 -73.078125 306.1875 -63.296875 344.875 -63.296875 C 346.632812 -63.296875 354.765625 -63.296875 369.265625 -63.296875 C 383.773438 -63.296875 399.828125 -64.617188 417.421875 -67.265625 L 417.421875 -199.140625 L 311.25 -224.859375 L 333.015625 -267.71875 L 599.421875 -267.71875 L 599.421875 -230.796875 L 537.421875 -178.046875 Z M 537.421875 -115.40625 "/></g></g></g><g fill="#999999" fill-opacity="1"><g transform="translate(10332.206682, 1495.408622)"><g><path d="M 448.40625 0.65625 L 31.65625 0.65625 L 31.65625 -36.265625 L 93.640625 -85.0625 L 93.640625 -453.6875 L 20.4375 -475.4375 L 42.203125 -518.3125 L 441.8125 -518.3125 L 489.296875 -530.171875 L 489.296875 -362.015625 L 453.015625 -347.515625 L 371.90625 -468.1875 L 213 -468.1875 L 213 -290.140625 L 291.46875 -290.140625 L 339.609375 -364 L 376.53125 -364 L 376.53125 -172.109375 L 333.671875 -150.34375 L 290.8125 -239.375 L 213 -239.375 L 213 -50.109375 L 366.640625 -50.109375 L 459.609375 -184.640625 L 495.890625 -169.46875 L 495.890625 12.53125 Z M 448.40625 0.65625 "/></g></g></g></svg>