<svg xmlns="http://www.w3.org/2000/svg" xmlns:xlink="http://www.w3.org/1999/xlink" width="1081" zoomAndPan="magnify" viewBox="0 0 810.75 231" height="308" preserveAspectRatio="xMidYMid meet" version="1.0"><defs><g/><clipPath id="22ec607876"><path d="M 0 0.0351562 L 810.5 0.0351562 L 810.5 230.964844 L 0 230.964844 Z M 0 0.0351562 " clip-rule="nonzero"/></clipPath><clipPath id="689d83f3bf"><path d="M 0 21 L 149 21 L 149 99 L 0 99 Z M 0 21 " clip-rule="nonzero"/></clipPath><clipPath id="97de1d4925"><path d="M 26.363281 0.0351562 L 148.308594 38.90625 L 122.308594 120.480469 L 0.359375 81.609375 Z M 26.363281 0.0351562 " clip-rule="nonzero"/></clipPath><clipPath id="aace605483"><path d="M 26.363281 0.0351562 L 148.308594 38.90625 L 122.308594 120.480469 L 0.359375 81.609375 Z M 26.363281 0.0351562 " clip-rule="nonzero"/></clipPath><clipPath id="e8f6f9e151"><path d="M 0 32 L 102 32 L 102 118 L 0 118 Z M 0 32 " clip-rule="nonzero"/></clipPath><clipPath id="74aa66875e"><path d="M 0.550781 81.335938 L 78.695312 32.121094 L 101.574219 68.453125 L 23.433594 117.667969 Z M 0.550781 81.335938 " clip-rule="nonzero"/></clipPath><clipPath id="3cf322900a"><path d="M 0 81 L 93 81 L 93 218 L 0 218 Z M 0 81 " clip-rule="nonzero"/></clipPath><clipPath id="32a6283d37"><path d="M 1.621094 218.167969 L 0.00390625 81.535156 L 91.667969 80.449219 L 93.285156 217.082031 Z M 1.621094 218.167969 " clip-rule="nonzero"/></clipPath><clipPath id="e31bcff97b"><path d="M 91.449219 80.25 L 93.066406 216.882812 L 1.402344 217.96875 L -0.214844 81.335938 Z M 91.449219 80.25 " clip-rule="nonzero"/></clipPath><clipPath id="494ba6be99"><path d="M 0 130 L 152 130 L 152 218 L 0 218 Z M 0 130 " clip-rule="nonzero"/></clipPath><clipPath id="0c0d76257e"><path d="M 151.628906 206.597656 L 17.164062 230.890625 L 0.863281 140.679688 L 135.328125 116.386719 Z M 151.628906 206.597656 " clip-rule="nonzero"/></clipPath><clipPath id="8292692b24"><path d="M 17.136719 230.898438 L 151.601562 206.601562 L 135.300781 116.390625 L 0.835938 140.6875 Z M 17.136719 230.898438 " clip-rule="nonzero"/></clipPath></defs><g clip-path="url(#22ec607876)"><path fill="#ffffff" d="M 0 0.0351562 L 810.5 0.0351562 L 810.5 230.964844 L 0 230.964844 Z M 0 0.0351562 " fill-opacity="1" fill-rule="nonzero"/></g><g clip-path="url(#689d83f3bf)"><g clip-path="url(#97de1d4925)"><g clip-path="url(#aace605483)"><path fill="#192128" d="M 94.011719 22.640625 C 89.804688 25.234375 13.679688 73.027344 4.527344 78.828125 C 3.550781 79.445312 2.21875 80.28125 1.59375 80.671875 C 0.960938 81.058594 0.429688 81.410156 0.417969 81.453125 C 0.402344 81.503906 12.359375 85.347656 26.980469 90.007812 L 53.570312 98.484375 L 56.945312 96.355469 C 58.8125 95.191406 69.964844 88.191406 81.722656 80.820312 C 115.945312 59.378906 148.167969 39.121094 148.253906 38.992188 C 148.292969 38.945312 138.25 35.699219 121.726562 30.433594 L 95.136719 21.957031 Z M 94.011719 22.640625 " fill-opacity="1" fill-rule="nonzero"/></g></g></g><g clip-path="url(#e8f6f9e151)"><g clip-path="url(#74aa66875e)"><path fill="#192128" d="M 0.550781 81.335938 L 78.75 32.085938 L 101.628906 68.417969 L 23.433594 117.667969 Z M 0.550781 81.335938 " fill-opacity="1" fill-rule="nonzero"/></g></g><g clip-path="url(#3cf322900a)"><g clip-path="url(#32a6283d37)"><g clip-path="url(#e31bcff97b)"><path fill="#444c58" d="M 91.289062 156.507812 C 87.242188 153.113281 13.105469 91.957031 4.140625 84.625 C 3.183594 83.839844 1.886719 82.769531 1.28125 82.269531 C 0.675781 81.753906 0.140625 81.335938 0.09375 81.335938 C 0.0351562 81.335938 0.160156 94.765625 0.355469 111.171875 L 0.707031 141.007812 L 4.007812 143.71875 C 5.816406 145.222656 16.671875 154.179688 28.113281 163.628906 C 61.398438 191.136719 92.804688 217.011719 92.964844 217.058594 C 93.023438 217.082031 92.9375 205.796875 92.71875 187.253906 L 92.363281 157.417969 Z M 91.289062 156.507812 " fill-opacity="1" fill-rule="nonzero"/></g></g></g><g clip-path="url(#494ba6be99)"><g clip-path="url(#0c0d76257e)"><g clip-path="url(#8292692b24)"><path fill="#444c58" d="M 91.886719 216.3125 C 87.796875 212.984375 13.796875 151.859375 4.914062 144.453125 C 3.960938 143.664062 2.667969 142.597656 2.0625 142.097656 C 1.445312 141.601562 0.929688 141.152344 0.921875 141.109375 C 0.910156 141.050781 14.101562 138.632812 30.230469 135.71875 L 59.550781 130.421875 L 62.832031 133.144531 C 64.648438 134.632812 75.488281 143.585938 86.921875 153.015625 C 120.191406 180.449219 151.507812 206.347656 151.578125 206.5 C 151.613281 206.550781 140.535156 208.601562 122.308594 211.894531 L 92.984375 217.191406 Z M 91.886719 216.3125 " fill-opacity="1" fill-rule="nonzero"/></g></g></g><g fill="#000000" fill-opacity="1"><g transform="translate(142.343276, 146.987697)"><g><path d="M 32.15625 0.84375 C 26.738281 0.84375 21.960938 -0.28125 17.828125 -2.53125 C 13.691406 -4.789062 10.457031 -8.179688 8.125 -12.703125 C 5.789062 -17.222656 4.625 -22.796875 4.625 -29.421875 C 4.625 -36.046875 5.789062 -41.617188 8.125 -46.140625 C 10.457031 -50.660156 13.691406 -54.046875 17.828125 -56.296875 C 21.960938 -58.554688 26.738281 -59.6875 32.15625 -59.6875 C 37.8125 -59.6875 42.617188 -58.578125 46.578125 -56.359375 C 50.535156 -54.148438 53.363281 -50.773438 55.0625 -46.234375 L 46.5625 -41.046875 L 45.5625 -41.09375 C 44.300781 -44.144531 42.585938 -46.332031 40.421875 -47.65625 C 38.265625 -48.988281 35.507812 -49.65625 32.15625 -49.65625 C 27.269531 -49.65625 23.457031 -48.039062 20.71875 -44.8125 C 17.988281 -41.582031 16.625 -36.453125 16.625 -29.421875 C 16.625 -22.421875 17.988281 -17.300781 20.71875 -14.0625 C 23.457031 -10.832031 27.269531 -9.21875 32.15625 -9.21875 C 39.800781 -9.21875 44.484375 -12.929688 46.203125 -20.359375 L 47.203125 -20.359375 L 55.78125 -15.890625 C 54.164062 -10.316406 51.410156 -6.132812 47.515625 -3.34375 C 43.628906 -0.550781 38.507812 0.84375 32.15625 0.84375 Z M 32.15625 0.84375 "/></g></g></g><g fill="#000000" fill-opacity="1"><g transform="translate(194.936546, 146.987697)"><g><path d="M 45.640625 -36.703125 L 45.640625 -58.84375 L 57.234375 -58.84375 L 57.234375 0 L 45.640625 0 L 45.640625 -26.796875 L 19.28125 -26.796875 L 19.28125 0 L 7.640625 0 L 7.640625 -58.84375 L 19.28125 -58.84375 L 19.28125 -36.703125 Z M 45.640625 -36.703125 "/></g></g></g><g fill="#000000" fill-opacity="1"><g transform="translate(254.732649, 146.987697)"><g><path d="M 56.46875 0 L 44.234375 0 L 39.796875 -13.5625 L 17.265625 -13.5625 L 12.84375 0 L 0.890625 0 L 21.203125 -58.84375 L 36.140625 -58.84375 Z M 27.96875 -46.5625 L 20.40625 -23.34375 L 36.578125 -23.34375 L 28.96875 -46.5625 Z M 27.96875 -46.5625 "/></g></g></g><g fill="#000000" fill-opacity="1"><g transform="translate(306.963765, 146.987697)"><g><path d="M 47.171875 -58.84375 L 47.171875 -49.0625 L 30.1875 -49.0625 L 30.1875 0 L 18.59375 0 L 18.59375 -49.0625 L 1.609375 -49.0625 L 1.609375 -58.84375 Z M 47.171875 -58.84375 "/></g></g></g><g fill="#000000" fill-opacity="1"><g transform="translate(350.623913, 146.987697)"><g><path d="M 47.171875 -58.84375 L 47.171875 -49.0625 L 30.1875 -49.0625 L 30.1875 0 L 18.59375 0 L 18.59375 -49.0625 L 1.609375 -49.0625 L 1.609375 -58.84375 Z M 47.171875 -58.84375 "/></g></g></g><g fill="#000000" fill-opacity="1"><g transform="translate(394.28406, 146.987697)"><g><path d="M 19.28125 -25.84375 L 19.28125 -9.734375 L 47.375 -9.734375 L 47.375 0 L 7.640625 0 L 7.640625 -58.84375 L 46.71875 -58.84375 L 46.71875 -49.09375 L 19.28125 -49.09375 L 19.28125 -35.328125 L 43.265625 -35.328125 L 43.265625 -25.84375 Z M 19.28125 -25.84375 "/></g></g></g><g fill="#000000" fill-opacity="1"><g transform="translate(439.754964, 146.987697)"><g><path d="M 7.640625 0 L 7.640625 -58.84375 L 31.265625 -58.84375 C 37.359375 -58.84375 41.953125 -57.4375 45.046875 -54.625 C 48.148438 -51.820312 49.703125 -47.953125 49.703125 -43.015625 C 49.703125 -39.453125 48.796875 -36.53125 46.984375 -34.25 C 45.171875 -31.96875 42.46875 -30.222656 38.875 -29.015625 L 38.875 -28.171875 C 40.726562 -27.367188 42.222656 -26.175781 43.359375 -24.59375 C 44.503906 -23.007812 45.585938 -20.660156 46.609375 -17.546875 L 52.484375 0 L 40.53125 0 L 34.765625 -17.59375 C 34.179688 -19.363281 33.519531 -20.738281 32.78125 -21.71875 C 32.039062 -22.695312 31.097656 -23.40625 29.953125 -23.84375 C 28.816406 -24.289062 27.335938 -24.515625 25.515625 -24.515625 L 19.28125 -24.515625 L 19.28125 0 Z M 29.859375 -33.71875 C 35.492188 -33.71875 38.3125 -36.347656 38.3125 -41.609375 C 38.3125 -46.953125 35.492188 -49.625 29.859375 -49.625 L 19.28125 -49.625 L 19.28125 -33.71875 Z M 29.859375 -33.71875 "/></g></g></g><g fill="#000000" fill-opacity="1"><g transform="translate(489.65219, 146.987697)"><g/></g></g><g fill="#000000" fill-opacity="1"><g transform="translate(503.977882, 146.987697)"><g><path d="M 7.640625 0 L 7.640625 -58.84375 L 32.765625 -58.84375 C 36.378906 -58.84375 39.441406 -58.269531 41.953125 -57.125 C 44.460938 -55.988281 46.359375 -54.363281 47.640625 -52.25 C 48.929688 -50.144531 49.578125 -47.660156 49.578125 -44.796875 C 49.578125 -42.191406 48.945312 -39.894531 47.6875 -37.90625 C 46.425781 -35.925781 44.613281 -34.332031 42.25 -33.125 L 42.25 -32.28125 C 45.957031 -31.3125 48.816406 -29.550781 50.828125 -27 C 52.835938 -24.457031 53.84375 -21.332031 53.84375 -17.625 C 53.84375 -11.988281 52.144531 -7.640625 48.75 -4.578125 C 45.363281 -1.523438 40.328125 0 33.640625 0 Z M 30.34375 -35.375 C 35.757812 -35.375 38.46875 -37.816406 38.46875 -42.703125 C 38.46875 -45.191406 37.796875 -47.046875 36.453125 -48.265625 C 35.117188 -49.492188 33.082031 -50.109375 30.34375 -50.109375 L 19.28125 -50.109375 L 19.28125 -35.375 Z M 32.484375 -9.21875 C 38.890625 -9.21875 42.09375 -12.128906 42.09375 -17.953125 C 42.09375 -23.796875 38.890625 -26.71875 32.484375 -26.71875 L 19.28125 -26.71875 L 19.28125 -9.21875 Z M 32.484375 -9.21875 "/></g></g></g><g fill="#000000" fill-opacity="1"><g transform="translate(556.410219, 146.987697)"><g><path d="M 7.640625 0 L 7.640625 -58.84375 L 31.265625 -58.84375 C 37.359375 -58.84375 41.953125 -57.4375 45.046875 -54.625 C 48.148438 -51.820312 49.703125 -47.953125 49.703125 -43.015625 C 49.703125 -39.453125 48.796875 -36.53125 46.984375 -34.25 C 45.171875 -31.96875 42.46875 -30.222656 38.875 -29.015625 L 38.875 -28.171875 C 40.726562 -27.367188 42.222656 -26.175781 43.359375 -24.59375 C 44.503906 -23.007812 45.585938 -20.660156 46.609375 -17.546875 L 52.484375 0 L 40.53125 0 L 34.765625 -17.59375 C 34.179688 -19.363281 33.519531 -20.738281 32.78125 -21.71875 C 32.039062 -22.695312 31.097656 -23.40625 29.953125 -23.84375 C 28.816406 -24.289062 27.335938 -24.515625 25.515625 -24.515625 L 19.28125 -24.515625 L 19.28125 0 Z M 29.859375 -33.71875 C 35.492188 -33.71875 38.3125 -36.347656 38.3125 -41.609375 C 38.3125 -46.953125 35.492188 -49.625 29.859375 -49.625 L 19.28125 -49.625 L 19.28125 -33.71875 Z M 29.859375 -33.71875 "/></g></g></g><g fill="#000000" fill-opacity="1"><g transform="translate(606.307468, 146.987697)"><g><path d="M 19.28125 0 L 7.640625 0 L 7.640625 -58.84375 L 19.28125 -58.84375 Z M 19.28125 0 "/></g></g></g><g fill="#000000" fill-opacity="1"><g transform="translate(628.15792, 146.987697)"><g><path d="M 28.8125 -58.84375 C 38.363281 -58.84375 45.65625 -56.375 50.6875 -51.4375 C 55.71875 -46.5 58.234375 -39.160156 58.234375 -29.421875 C 58.234375 -19.703125 55.71875 -12.367188 50.6875 -7.421875 C 45.65625 -2.472656 38.363281 0 28.8125 0 L 7.640625 0 L 7.640625 -58.84375 Z M 28.125 -9.78125 C 34.195312 -9.78125 38.734375 -11.328125 41.734375 -14.421875 C 44.734375 -17.523438 46.234375 -22.523438 46.234375 -29.421875 C 46.234375 -36.316406 44.734375 -41.3125 41.734375 -44.40625 C 38.734375 -47.507812 34.195312 -49.0625 28.125 -49.0625 L 19.28125 -49.0625 L 19.28125 -9.78125 Z M 28.125 -9.78125 "/></g></g></g><g fill="#000000" fill-opacity="1"><g transform="translate(685.942071, 146.987697)"><g><path d="M 28.578125 0.84375 C 23.660156 0.84375 19.410156 -0.273438 15.828125 -2.515625 C 12.253906 -4.753906 9.492188 -8.132812 7.546875 -12.65625 C 5.597656 -17.175781 4.625 -22.765625 4.625 -29.421875 C 4.625 -36.128906 5.789062 -41.742188 8.125 -46.265625 C 10.457031 -50.785156 13.695312 -54.148438 17.84375 -56.359375 C 21.988281 -58.578125 26.800781 -59.6875 32.28125 -59.6875 C 37.914062 -59.6875 42.71875 -58.640625 46.6875 -56.546875 C 50.65625 -54.453125 53.445312 -51.335938 55.0625 -47.203125 L 46.5625 -42.0625 L 45.5625 -42.09375 C 44.351562 -44.726562 42.65625 -46.644531 40.46875 -47.84375 C 38.28125 -49.050781 35.550781 -49.65625 32.28125 -49.65625 C 27.207031 -49.65625 23.328125 -48.050781 20.640625 -44.84375 C 17.960938 -41.644531 16.625 -36.503906 16.625 -29.421875 C 16.625 -22.304688 17.875 -17.140625 20.375 -13.921875 C 22.882812 -10.703125 26.597656 -9.09375 31.515625 -9.09375 C 35.753906 -9.09375 38.878906 -10.046875 40.890625 -11.953125 C 42.898438 -13.859375 43.90625 -16.703125 43.90625 -20.484375 L 43.90625 -23.015625 L 29.984375 -23.015625 L 29.984375 -32.484375 L 55.453125 -32.484375 L 55.453125 0 L 44.34375 0 L 44.34375 -7.890625 L 43.5 -8.015625 C 42.289062 -5.191406 40.457031 -3.007812 38 -1.46875 C 35.550781 0.0703125 32.410156 0.84375 28.578125 0.84375 Z M 28.578125 0.84375 "/></g></g></g><g fill="#000000" fill-opacity="1"><g transform="translate(742.197104, 146.987697)"><g><path d="M 19.28125 -25.84375 L 19.28125 -9.734375 L 47.375 -9.734375 L 47.375 0 L 7.640625 0 L 7.640625 -58.84375 L 46.71875 -58.84375 L 46.71875 -49.09375 L 19.28125 -49.09375 L 19.28125 -35.328125 L 43.265625 -35.328125 L 43.265625 -25.84375 Z M 19.28125 -25.84375 "/></g></g></g></svg>