<svg xmlns="http://www.w3.org/2000/svg" xmlns:xlink="http://www.w3.org/1999/xlink" width="1514" zoomAndPan="magnify" viewBox="0 0 1135.5 274.499992" height="366" preserveAspectRatio="xMidYMid meet" version="1.0"><defs><g/><clipPath id="2b863b8390"><path d="M 0.78125 27 L 184 27 L 184 122 L 0.78125 122 Z M 0.78125 27 " clip-rule="nonzero"/></clipPath><clipPath id="aa392dd721"><path d="M 32.847656 0 L 183.351562 47.972656 L 151.292969 148.546875 L 0.789062 100.570312 Z M 32.847656 0 " clip-rule="nonzero"/></clipPath><clipPath id="577affb445"><path d="M 32.847656 0 L 183.351562 47.972656 L 151.292969 148.546875 L 0.789062 100.570312 Z M 32.847656 0 " clip-rule="nonzero"/></clipPath><clipPath id="397d95da37"><path d="M 0.78125 39 L 126 39 L 126 146 L 0.78125 146 Z M 0.78125 39 " clip-rule="nonzero"/></clipPath><clipPath id="6ac177436d"><path d="M 0.988281 100.347656 L 97.441406 39.601562 L 125.683594 84.445312 L 29.230469 145.191406 Z M 0.988281 100.347656 " clip-rule="nonzero"/></clipPath><clipPath id="202f9c2572"><path d="M 1 100 L 109 100 L 109 258 L 1 258 Z M 1 100 " clip-rule="nonzero"/></clipPath><clipPath id="f47a9f6264"><path d="M 2.863281 258.996094 L 0.980469 99.96875 L 106.996094 98.710938 L 108.882812 257.738281 Z M 2.863281 258.996094 " clip-rule="nonzero"/></clipPath><clipPath id="08e63fe85a"><path d="M 106.988281 99.132812 L 108.871094 258.160156 L 2.855469 259.417969 L 0.96875 100.390625 Z M 106.988281 99.132812 " clip-rule="nonzero"/></clipPath><clipPath id="126dcf8602"><path d="M 2 157 L 177 157 L 177 258 L 2 258 Z M 2 157 " clip-rule="nonzero"/></clipPath><clipPath id="37fd035bb3"><path d="M 176.742188 245.589844 L 21.089844 273.714844 L 2.238281 169.378906 L 157.886719 141.253906 Z M 176.742188 245.589844 " clip-rule="nonzero"/></clipPath><clipPath id="b33571c8b9"><path d="M 20.851562 273.757812 L 176.5 245.636719 L 157.648438 141.300781 L 2 169.421875 Z M 20.851562 273.757812 " clip-rule="nonzero"/></clipPath></defs><g clip-path="url(#2b863b8390)"><g clip-path="url(#aa392dd721)"><g clip-path="url(#577affb445)"><path fill="#192128" d="M 116.347656 27.902344 C 111.160156 31.105469 17.191406 90.097656 5.898438 97.257812 C 4.691406 98.019531 3.046875 99.046875 2.277344 99.53125 C 1.496094 100.007812 0.839844 100.445312 0.824219 100.496094 C 0.800781 100.558594 15.5625 105.304688 33.609375 111.058594 L 66.429688 121.519531 L 70.597656 118.886719 C 72.902344 117.453125 86.667969 108.816406 101.183594 99.714844 C 143.421875 73.246094 183.195312 48.246094 183.304688 48.085938 C 183.347656 48.027344 170.957031 44.023438 150.558594 37.519531 L 117.738281 27.058594 Z M 116.347656 27.902344 " fill-opacity="1" fill-rule="nonzero"/></g></g></g><g clip-path="url(#397d95da37)"><g clip-path="url(#6ac177436d)"><path fill="#192128" d="M 0.988281 100.347656 L 97.507812 39.558594 L 125.75 84.402344 L 29.230469 145.191406 Z M 0.988281 100.347656 " fill-opacity="1" fill-rule="nonzero"/></g></g><g clip-path="url(#202f9c2572)"><g clip-path="url(#f47a9f6264)"><g clip-path="url(#08e63fe85a)"><path fill="#444c58" d="M 106.804688 187.527344 C 102.113281 183.59375 16.175781 112.699219 5.78125 104.203125 C 4.671875 103.292969 3.171875 102.050781 2.46875 101.46875 C 1.765625 100.875 1.144531 100.386719 1.089844 100.386719 C 1.023438 100.390625 1.167969 115.957031 1.394531 134.976562 L 1.804688 169.558594 L 5.628906 172.699219 C 7.726562 174.441406 20.308594 184.828125 33.570312 195.78125 C 72.152344 227.667969 108.558594 257.660156 108.746094 257.714844 C 108.8125 257.738281 108.710938 244.664062 108.457031 223.167969 L 108.046875 188.582031 Z M 106.804688 187.527344 " fill-opacity="1" fill-rule="nonzero"/></g></g></g><g clip-path="url(#126dcf8602)"><g clip-path="url(#37fd035bb3)"><g clip-path="url(#b33571c8b9)"><path fill="#444c58" d="M 107.496094 256.851562 C 102.75 252.996094 16.972656 182.136719 6.671875 173.550781 C 5.570312 172.636719 4.070312 171.402344 3.367188 170.820312 C 2.652344 170.246094 2.054688 169.726562 2.046875 169.675781 C 2.035156 169.609375 17.324219 166.804688 36.019531 163.425781 L 70.011719 157.285156 L 73.816406 160.441406 C 75.921875 162.167969 88.488281 172.542969 101.738281 183.476562 C 140.304688 215.277344 176.605469 245.304688 176.691406 245.476562 C 176.730469 245.539062 163.886719 247.914062 142.761719 251.730469 L 108.765625 257.871094 Z M 107.496094 256.851562 " fill-opacity="1" fill-rule="nonzero"/></g></g></g><g fill="#000000" fill-opacity="1"><g transform="translate(149.155822, 179.888353)"><g><path d="M 83.671875 -56.109375 L 65.203125 -56.109375 C 64.503906 -60.859375 62.484375 -64.585938 59.140625 -67.296875 C 55.796875 -70.003906 51.625 -71.359375 46.625 -71.359375 C 39.9375 -71.359375 34.570312 -68.90625 30.53125 -64 C 26.5 -59.101562 24.484375 -52.160156 24.484375 -43.171875 C 24.484375 -33.953125 26.515625 -26.945312 30.578125 -22.15625 C 34.640625 -17.363281 39.945312 -14.96875 46.5 -14.96875 C 51.351562 -14.96875 55.46875 -16.238281 58.84375 -18.78125 C 62.21875 -21.320312 64.335938 -24.894531 65.203125 -29.5 L 83.671875 -29.421875 C 83.023438 -24.140625 81.140625 -19.164062 78.015625 -14.5 C 74.898438 -9.832031 70.664062 -6.050781 65.3125 -3.15625 C 59.957031 -0.257812 53.585938 1.1875 46.203125 1.1875 C 38.503906 1.1875 31.625 -0.554688 25.5625 -4.046875 C 19.507812 -7.535156 14.734375 -12.578125 11.234375 -19.171875 C 7.734375 -25.773438 5.984375 -33.773438 5.984375 -43.171875 C 5.984375 -52.578125 7.753906 -60.582031 11.296875 -67.1875 C 14.835938 -73.789062 19.640625 -78.828125 25.703125 -82.296875 C 31.773438 -85.773438 38.609375 -87.515625 46.203125 -87.515625 C 52.859375 -87.515625 58.863281 -86.285156 64.21875 -83.828125 C 69.570312 -81.367188 73.957031 -77.796875 77.375 -73.109375 C 80.789062 -68.429688 82.890625 -62.765625 83.671875 -56.109375 Z M 83.671875 -56.109375 "/></g></g></g><g fill="#000000" fill-opacity="1"><g transform="translate(231.069738, 179.888353)"><g><path d="M 7.5 0 L 7.5 -86.328125 L 25.75 -86.328125 L 25.75 -50.703125 L 62.8125 -50.703125 L 62.8125 -86.328125 L 81.015625 -86.328125 L 81.015625 0 L 62.8125 0 L 62.8125 -35.65625 L 25.75 -35.65625 L 25.75 0 Z M 7.5 0 "/></g></g></g><g fill="#000000" fill-opacity="1"><g transform="translate(312.267105, 179.888353)"><g><path d="M 22.390625 0 L 2.828125 0 L 32.625 -86.328125 L 56.140625 -86.328125 L 85.90625 0 L 66.34375 0 L 59.9375 -19.6875 L 28.796875 -19.6875 Z M 33.421875 -33.9375 L 55.34375 -33.9375 L 44.71875 -66.609375 L 44.046875 -66.609375 Z M 33.421875 -33.9375 "/></g></g></g><g fill="#000000" fill-opacity="1"><g transform="translate(393.675226, 179.888353)"><g><path d="M 4.21875 -71.28125 L 4.21875 -86.328125 L 75.109375 -86.328125 L 75.109375 -71.28125 L 48.6875 -71.28125 L 48.6875 0 L 30.640625 0 L 30.640625 -71.28125 Z M 4.21875 -71.28125 "/></g></g></g><g fill="#000000" fill-opacity="1"><g transform="translate(465.641799, 179.888353)"><g><path d="M 4.21875 -71.28125 L 4.21875 -86.328125 L 75.109375 -86.328125 L 75.109375 -71.28125 L 48.6875 -71.28125 L 48.6875 0 L 30.640625 0 L 30.640625 -71.28125 Z M 4.21875 -71.28125 "/></g></g></g><g fill="#000000" fill-opacity="1"><g transform="translate(537.608371, 179.888353)"><g><path d="M 7.5 0 L 7.5 -86.328125 L 65.671875 -86.328125 L 65.671875 -71.28125 L 25.75 -71.28125 L 25.75 -50.703125 L 62.6875 -50.703125 L 62.6875 -35.65625 L 25.75 -35.65625 L 25.75 -15.046875 L 65.84375 -15.046875 L 65.84375 0 Z M 7.5 0 "/></g></g></g><g fill="#000000" fill-opacity="1"><g transform="translate(602.957412, 179.888353)"><g><path d="M 7.5 0 L 7.5 -86.328125 L 41.5625 -86.328125 C 51.375 -86.328125 58.984375 -83.769531 64.390625 -78.65625 C 69.796875 -73.539062 72.5 -66.695312 72.5 -58.125 C 72.5 -52.226562 71.1875 -47.1875 68.5625 -43 C 65.9375 -38.8125 62.164062 -35.660156 57.25 -33.546875 L 75.578125 0 L 55.4375 0 L 39.078125 -30.609375 L 25.75 -30.609375 L 25.75 0 Z M 25.75 -45.265625 L 38.15625 -45.265625 C 48.519531 -45.265625 53.703125 -49.550781 53.703125 -58.125 C 53.703125 -66.976562 48.488281 -71.40625 38.0625 -71.40625 L 25.75 -71.40625 Z M 25.75 -45.265625 "/></g></g></g><g fill="#000000" fill-opacity="1"><g transform="translate(673.490887, 179.888353)"><g/></g></g><g fill="#000000" fill-opacity="1"><g transform="translate(693.655405, 179.888353)"><g><path d="M 7.5 0 L 7.5 -86.328125 L 42.0625 -86.328125 C 51.59375 -86.328125 58.753906 -84.253906 63.546875 -80.109375 C 68.335938 -75.960938 70.734375 -70.660156 70.734375 -64.203125 C 70.734375 -59.109375 69.253906 -54.992188 66.296875 -51.859375 C 63.347656 -48.734375 59.628906 -46.664062 55.140625 -45.65625 L 55.140625 -44.8125 C 58.421875 -44.664062 61.5 -43.734375 64.375 -42.015625 C 67.257812 -40.304688 69.601562 -37.921875 71.40625 -34.859375 C 73.207031 -31.796875 74.109375 -28.128906 74.109375 -23.859375 C 74.109375 -19.273438 72.972656 -15.1875 70.703125 -11.59375 C 68.441406 -8 65.101562 -5.164062 60.6875 -3.09375 C 56.28125 -1.03125 50.847656 0 44.390625 0 Z M 25.75 -14.921875 L 40.640625 -14.921875 C 45.753906 -14.921875 49.46875 -15.90625 51.78125 -17.875 C 54.101562 -19.84375 55.265625 -22.441406 55.265625 -25.671875 C 55.265625 -29.242188 53.992188 -32.164062 51.453125 -34.4375 C 48.910156 -36.71875 45.445312 -37.859375 41.0625 -37.859375 L 25.75 -37.859375 Z M 25.75 -50.203125 L 39.28125 -50.203125 C 43.019531 -50.203125 46.125 -51.175781 48.59375 -53.125 C 51.070312 -55.082031 52.3125 -57.765625 52.3125 -61.171875 C 52.3125 -64.285156 51.207031 -66.796875 49 -68.703125 C 46.789062 -70.617188 43.664062 -71.578125 39.625 -71.578125 L 25.75 -71.578125 Z M 25.75 -50.203125 "/></g></g></g><g fill="#000000" fill-opacity="1"><g transform="translate(764.736832, 179.888353)"><g><path d="M 7.5 0 L 7.5 -86.328125 L 41.5625 -86.328125 C 51.375 -86.328125 58.984375 -83.769531 64.390625 -78.65625 C 69.796875 -73.539062 72.5 -66.695312 72.5 -58.125 C 72.5 -52.226562 71.1875 -47.1875 68.5625 -43 C 65.9375 -38.8125 62.164062 -35.660156 57.25 -33.546875 L 75.578125 0 L 55.4375 0 L 39.078125 -30.609375 L 25.75 -30.609375 L 25.75 0 Z M 25.75 -45.265625 L 38.15625 -45.265625 C 48.519531 -45.265625 53.703125 -49.550781 53.703125 -58.125 C 53.703125 -66.976562 48.488281 -71.40625 38.0625 -71.40625 L 25.75 -71.40625 Z M 25.75 -45.265625 "/></g></g></g><g fill="#000000" fill-opacity="1"><g transform="translate(835.270308, 179.888353)"><g><path d="M 25.75 -86.328125 L 25.75 0 L 7.5 0 L 7.5 -86.328125 Z M 25.75 -86.328125 "/></g></g></g><g fill="#000000" fill-opacity="1"><g transform="translate(861.20934, 179.888353)"><g><path d="M 38.109375 0 L 7.5 0 L 7.5 -86.328125 L 38.359375 -86.328125 C 47.046875 -86.328125 54.53125 -84.601562 60.8125 -81.15625 C 67.09375 -77.71875 71.914062 -72.78125 75.28125 -66.34375 C 78.65625 -59.914062 80.34375 -52.21875 80.34375 -43.25 C 80.34375 -34.257812 78.648438 -26.53125 75.265625 -20.0625 C 71.878906 -13.601562 67.03125 -8.644531 60.71875 -5.1875 C 54.414062 -1.726562 46.878906 0 38.109375 0 Z M 25.75 -15.640625 L 37.34375 -15.640625 C 45.46875 -15.640625 51.628906 -17.832031 55.828125 -22.21875 C 60.035156 -26.601562 62.140625 -33.613281 62.140625 -43.25 C 62.140625 -52.832031 60.035156 -59.800781 55.828125 -64.15625 C 51.628906 -68.507812 45.484375 -70.6875 37.390625 -70.6875 L 25.75 -70.6875 Z M 25.75 -15.640625 "/></g></g></g><g fill="#000000" fill-opacity="1"><g transform="translate(940.172787, 179.888353)"><g><path d="M 64.75 -58.421875 C 63.59375 -62.472656 61.460938 -65.640625 58.359375 -67.921875 C 55.253906 -70.210938 51.351562 -71.359375 46.65625 -71.359375 C 40.050781 -71.359375 34.703125 -68.921875 30.609375 -64.046875 C 26.523438 -59.171875 24.484375 -52.238281 24.484375 -43.25 C 24.484375 -34.226562 26.492188 -27.257812 30.515625 -22.34375 C 34.535156 -17.425781 39.972656 -14.96875 46.828125 -14.96875 C 52.898438 -14.96875 57.671875 -16.546875 61.140625 -19.703125 C 64.609375 -22.867188 66.398438 -27.117188 66.515625 -32.453125 L 47.96875 -32.453125 L 47.96875 -46.203125 L 84.09375 -46.203125 L 84.09375 -35.328125 C 84.09375 -27.765625 82.488281 -21.25 79.28125 -15.78125 C 76.082031 -10.320312 71.679688 -6.128906 66.078125 -3.203125 C 60.472656 -0.273438 54.03125 1.1875 46.75 1.1875 C 38.65625 1.1875 31.546875 -0.601562 25.421875 -4.1875 C 19.296875 -7.769531 14.523438 -12.867188 11.109375 -19.484375 C 7.691406 -26.109375 5.984375 -33.972656 5.984375 -43.078125 C 5.984375 -52.410156 7.765625 -60.390625 11.328125 -67.015625 C 14.898438 -73.648438 19.734375 -78.722656 25.828125 -82.234375 C 31.929688 -85.753906 38.78125 -87.515625 46.375 -87.515625 C 52.882812 -87.515625 58.78125 -86.273438 64.0625 -83.796875 C 69.351562 -81.328125 73.679688 -77.90625 77.046875 -73.53125 C 80.421875 -69.164062 82.503906 -64.128906 83.296875 -58.421875 Z M 64.75 -58.421875 "/></g></g></g><g fill="#000000" fill-opacity="1"><g transform="translate(1023.098332, 179.888353)"><g><path d="M 7.5 0 L 7.5 -86.328125 L 65.671875 -86.328125 L 65.671875 -71.28125 L 25.75 -71.28125 L 25.75 -50.703125 L 62.6875 -50.703125 L 62.6875 -35.65625 L 25.75 -35.65625 L 25.75 -15.046875 L 65.84375 -15.046875 L 65.84375 0 Z M 7.5 0 "/></g></g></g></svg>