<svg xmlns="http://www.w3.org/2000/svg" xmlns:xlink="http://www.w3.org/1999/xlink" width="15384" zoomAndPan="magnify" viewBox="0 0 11538 2207.249973" height="2943" preserveAspectRatio="xMidYMid meet" version="1.0"><defs><g/><clipPath id="adc32c9b2f"><path d="M 1.960938 828.660156 L 1083.082031 828.660156 L 1083.082031 1909.792969 L 1.960938 1909.792969 Z M 1.960938 828.660156 " clip-rule="nonzero"/></clipPath><clipPath id="6840ef304a"><path d="M 126.324219 812.675781 L 1097.242188 812.675781 L 1097.242188 1783.59375 L 126.324219 1783.59375 Z M 126.324219 812.675781 " clip-rule="nonzero"/></clipPath><clipPath id="52d848dc1d"><path d="M 261.730469 0 L 1083.453125 0 L 1083.453125 1643.441406 L 261.730469 1643.441406 Z M 261.730469 0 " clip-rule="nonzero"/></clipPath><clipPath id="9a3bf3db81"><path d="M 411.214844 142.640625 L 1097.234375 142.640625 L 1097.234375 1514.675781 L 411.214844 1514.675781 Z M 411.214844 142.640625 " clip-rule="nonzero"/></clipPath><clipPath id="55e17fa597"><path d="M 544.753906 283.023438 L 1622 283.023438 L 1622 1360.40625 L 544.753906 1360.40625 Z M 544.753906 283.023438 " clip-rule="nonzero"/></clipPath><clipPath id="0fea21bb1f"><path d="M 1083.128906 282.808594 C 1083.214844 282.808594 1083.339844 282.808594 1083.421875 282.808594 C 1083.507812 282.808594 1083.632812 282.808594 1083.714844 282.808594 C 1381.015625 283.101562 1621.925781 524.222656 1621.925781 821.609375 L 1083.714844 821.609375 L 1083.714844 1360.40625 C 786.164062 1360.40625 544.917969 1119.160156 544.917969 821.609375 C 544.917969 524.222656 785.828125 283.101562 1083.128906 282.808594 Z M 1083.128906 282.808594 " clip-rule="nonzero"/></clipPath></defs><g clip-path="url(#adc32c9b2f)"><path fill="#000000" d="M 1.960938 828.671875 C 1.960938 970.644531 29.921875 1111.230469 84.253906 1242.398438 C 138.585938 1373.566406 218.222656 1492.746094 318.613281 1593.136719 C 419.003906 1693.53125 538.1875 1773.164062 669.355469 1827.496094 C 800.519531 1881.828125 941.105469 1909.792969 1083.082031 1909.792969 L 1083.082031 828.671875 Z M 1.960938 828.671875 " fill-opacity="1" fill-rule="nonzero"/></g><g clip-path="url(#6840ef304a)"><path fill="#e7e5e4" d="M 126.148438 812.5 C 126.148438 940.023438 151.265625 1066.300781 200.066406 1184.121094 C 248.871094 1301.9375 320.402344 1408.992188 410.574219 1499.167969 C 500.75 1589.34375 607.804688 1660.871094 725.621094 1709.675781 C 843.441406 1758.476562 969.71875 1783.59375 1097.242188 1783.59375 L 1097.242188 812.5 Z M 126.148438 812.5 " fill-opacity="1" fill-rule="nonzero"/></g><g clip-path="url(#52d848dc1d)"><path fill="#000000" d="M 261.730469 821.722656 C 261.730469 1275.542969 629.628906 1643.441406 1083.453125 1643.441406 L 1083.453125 0 C 629.628906 0 261.730469 367.898438 261.730469 821.722656 " fill-opacity="1" fill-rule="nonzero"/></g><g clip-path="url(#9a3bf3db81)"><path fill="#e7e5e4" d="M 411.214844 828.667969 C 411.214844 1207.550781 718.363281 1514.699219 1097.246094 1514.699219 L 1097.246094 142.640625 C 718.363281 142.640625 411.214844 449.789062 411.214844 828.667969 " fill-opacity="1" fill-rule="nonzero"/></g><g clip-path="url(#55e17fa597)"><g clip-path="url(#0fea21bb1f)"><path fill="#000000" d="M 1621.925781 1360.40625 L 1621.925781 283.023438 L 544.917969 283.023438 L 544.917969 1360.40625 Z M 1621.925781 1360.40625 " fill-opacity="1" fill-rule="nonzero"/></g></g><g fill="#000000" fill-opacity="1"><g transform="translate(1581.597819, 1495.703559)"><g><path d="M 527.46875 -348.796875 L 491.21875 -334.28125 L 398.25 -468.140625 L 336.921875 -468.140625 L 336.921875 -61.984375 L 410.765625 -42.859375 L 389.015625 0 L 155.609375 0 L 155.609375 -36.921875 L 217.578125 -85.71875 L 217.578125 -468.140625 L 158.90625 -468.140625 L 65.9375 -334.28125 L 29.671875 -348.796875 L 29.671875 -530.109375 L 77.140625 -518.25 L 480 -518.25 L 527.46875 -530.109375 Z M 527.46875 -348.796875 "/></g></g></g><g fill="#000000" fill-opacity="1"><g transform="translate(2138.739958, 1495.703559)"><g><path d="M 607.921875 -0.65625 L 374.5 -0.65625 L 374.5 -37.578125 L 436.484375 -89.671875 L 436.484375 -233.40625 L 212.96875 -233.40625 L 212.96875 -64.609375 L 286.15625 -43.515625 L 265.0625 -0.65625 L 31.65625 -0.65625 L 31.65625 -37.578125 L 93.625 -89.671875 L 93.625 -454.953125 L 20.4375 -476.046875 L 42.203125 -518.90625 L 275.609375 -518.90625 L 275.609375 -481.984375 L 212.96875 -429.234375 L 212.96875 -284.171875 L 436.484375 -284.171875 L 436.484375 -454.953125 L 363.296875 -476.046875 L 385.0625 -518.90625 L 618.46875 -518.90625 L 618.46875 -481.984375 L 555.828125 -429.234375 L 555.828125 -63.953125 L 629.015625 -43.515625 Z M 607.921875 -0.65625 "/></g></g></g><g fill="#000000" fill-opacity="1"><g transform="translate(2788.189535, 1495.703559)"><g><path d="M 448.359375 0.65625 L 31.65625 0.65625 L 31.65625 -36.265625 L 93.625 -85.0625 L 93.625 -453.625 L 20.4375 -475.390625 L 42.203125 -518.25 L 441.765625 -518.25 L 489.234375 -530.109375 L 489.234375 -361.984375 L 452.96875 -347.46875 L 371.875 -468.140625 L 212.96875 -468.140625 L 212.96875 -290.109375 L 291.4375 -290.109375 L 339.5625 -363.953125 L 376.484375 -363.953125 L 376.484375 -172.09375 L 333.625 -150.328125 L 290.765625 -239.34375 L 212.96875 -239.34375 L 212.96875 -50.109375 L 366.59375 -50.109375 L 459.5625 -184.609375 L 495.828125 -169.453125 L 495.828125 12.53125 Z M 448.359375 0.65625 "/></g></g></g><g fill="#000000" fill-opacity="1"><g transform="translate(3328.848083, 1495.703559)"><g/></g></g><g fill="#000000" fill-opacity="1"><g transform="translate(3512.80382, 1495.703559)"><g><path d="M 338.25 -531.4375 C 363.738281 -531.4375 393.515625 -528.140625 427.578125 -521.546875 C 461.648438 -514.953125 486.597656 -507.914062 502.421875 -500.4375 L 502.421875 -360 L 439.78125 -360 C 405.9375 -423.738281 359.34375 -455.609375 300 -455.609375 C 275.820312 -455.609375 253.625 -447.914062 233.40625 -432.53125 C 213.1875 -417.144531 197.25 -396.046875 185.59375 -369.234375 C 173.945312 -342.421875 168.125 -312.3125 168.125 -278.90625 C 168.125 -241.101562 173.945312 -206.484375 185.59375 -175.046875 C 197.25 -143.617188 214.941406 -118.566406 238.671875 -99.890625 C 262.410156 -81.210938 291.863281 -71.875 327.03125 -71.875 C 367.03125 -71.875 423.953125 -93.847656 497.796875 -137.796875 L 524.171875 -95.609375 L 402.859375 -1.3125 C 383.515625 4.394531 364.941406 8.238281 347.140625 10.21875 C 329.335938 12.195312 310.328125 13.1875 290.109375 13.1875 C 240.878906 13.1875 197.140625 1.976562 158.890625 -20.4375 C 120.648438 -42.851562 90.976562 -73.734375 69.875 -113.078125 C 48.78125 -152.421875 38.234375 -197.144531 38.234375 -247.25 C 38.234375 -298.675781 54.054688 -346.257812 85.703125 -390 C 117.359375 -433.738281 156.703125 -468.242188 203.734375 -493.515625 C 250.765625 -518.796875 295.601562 -531.4375 338.25 -531.4375 Z M 338.25 -531.4375 "/></g></g></g><g fill="#000000" fill-opacity="1"><g transform="translate(4064.671202, 1495.703559)"><g><path d="M 607.921875 -0.65625 L 374.5 -0.65625 L 374.5 -37.578125 L 436.484375 -89.671875 L 436.484375 -233.40625 L 212.96875 -233.40625 L 212.96875 -64.609375 L 286.15625 -43.515625 L 265.0625 -0.65625 L 31.65625 -0.65625 L 31.65625 -37.578125 L 93.625 -89.671875 L 93.625 -454.953125 L 20.4375 -476.046875 L 42.203125 -518.90625 L 275.609375 -518.90625 L 275.609375 -481.984375 L 212.96875 -429.234375 L 212.96875 -284.171875 L 436.484375 -284.171875 L 436.484375 -454.953125 L 363.296875 -476.046875 L 385.0625 -518.90625 L 618.46875 -518.90625 L 618.46875 -481.984375 L 555.828125 -429.234375 L 555.828125 -63.953125 L 629.015625 -43.515625 Z M 607.921875 -0.65625 "/></g></g></g><g fill="#000000" fill-opacity="1"><g transform="translate(4714.120778, 1495.703559)"><g><path d="M 586.15625 0 L 340.875 0 L 340.875 -36.921875 L 412.75 -79.78125 L 372.53125 -178.015625 L 168.796875 -178.015625 L 132.53125 -89.671875 L 233.40625 -42.859375 L 212.3125 0 L -0.65625 0 L -0.65625 -36.921875 L 70.546875 -90.328125 L 239.34375 -497.140625 L 353.40625 -530.765625 L 540.65625 -76.484375 L 607.921875 -42.859375 Z M 271.65625 -426.59375 L 189.890625 -228.796875 L 352.09375 -228.796875 Z M 271.65625 -426.59375 "/></g></g></g><g fill="#000000" fill-opacity="1"><g transform="translate(5318.076048, 1495.703559)"><g><path d="M 527.46875 -348.796875 L 491.21875 -334.28125 L 398.25 -468.140625 L 336.921875 -468.140625 L 336.921875 -61.984375 L 410.765625 -42.859375 L 389.015625 0 L 155.609375 0 L 155.609375 -36.921875 L 217.578125 -85.71875 L 217.578125 -468.140625 L 158.90625 -468.140625 L 65.9375 -334.28125 L 29.671875 -348.796875 L 29.671875 -530.109375 L 77.140625 -518.25 L 480 -518.25 L 527.46875 -530.109375 Z M 527.46875 -348.796875 "/></g></g></g><g fill="#000000" fill-opacity="1"><g transform="translate(5875.218007, 1495.703559)"><g><path d="M 527.46875 -348.796875 L 491.21875 -334.28125 L 398.25 -468.140625 L 336.921875 -468.140625 L 336.921875 -61.984375 L 410.765625 -42.859375 L 389.015625 0 L 155.609375 0 L 155.609375 -36.921875 L 217.578125 -85.71875 L 217.578125 -468.140625 L 158.90625 -468.140625 L 65.9375 -334.28125 L 29.671875 -348.796875 L 29.671875 -530.109375 L 77.140625 -518.25 L 480 -518.25 L 527.46875 -530.109375 Z M 527.46875 -348.796875 "/></g></g></g><g fill="#000000" fill-opacity="1"><g transform="translate(6432.359966, 1495.703559)"><g><path d="M 448.359375 0.65625 L 31.65625 0.65625 L 31.65625 -36.265625 L 93.625 -85.0625 L 93.625 -453.625 L 20.4375 -475.390625 L 42.203125 -518.25 L 441.765625 -518.25 L 489.234375 -530.109375 L 489.234375 -361.984375 L 452.96875 -347.46875 L 371.875 -468.140625 L 212.96875 -468.140625 L 212.96875 -290.109375 L 291.4375 -290.109375 L 339.5625 -363.953125 L 376.484375 -363.953125 L 376.484375 -172.09375 L 333.625 -150.328125 L 290.765625 -239.34375 L 212.96875 -239.34375 L 212.96875 -50.109375 L 366.59375 -50.109375 L 459.5625 -184.609375 L 495.828125 -169.453125 L 495.828125 12.53125 Z M 448.359375 0.65625 "/></g></g></g><g fill="#000000" fill-opacity="1"><g transform="translate(6973.018515, 1495.703559)"><g><path d="M 541.984375 0 L 398.90625 0 L 271.65625 -228.140625 L 242.640625 -245.9375 L 259.125 -278.25 L 289.453125 -278.25 C 313.191406 -278.25 331.875 -285.5 345.5 -300 C 359.125 -314.507812 365.9375 -334.953125 365.9375 -361.328125 C 365.9375 -392.085938 357.691406 -417.25 341.203125 -436.8125 C 324.722656 -456.375 300.660156 -466.15625 269.015625 -466.15625 C 249.234375 -466.15625 230.769531 -460 213.625 -447.6875 L 213.625 -63.296875 L 286.8125 -42.203125 L 265.71875 0.65625 L 32.3125 0.65625 L 32.3125 -36.265625 L 94.28125 -88.359375 L 94.28125 -454.28125 L 21.09375 -474.734375 L 42.859375 -517.578125 L 152.3125 -517.578125 C 190.550781 -517.578125 228.132812 -518.898438 265.0625 -521.546875 C 291.425781 -523.296875 311.203125 -524.171875 324.390625 -524.171875 C 358.242188 -524.171875 388.242188 -518.128906 414.390625 -506.046875 C 440.546875 -493.960938 460.765625 -477.585938 475.046875 -456.921875 C 489.335938 -436.265625 496.484375 -413.1875 496.484375 -387.6875 C 496.484375 -356.925781 482.859375 -328.359375 455.609375 -301.984375 C 428.359375 -275.609375 395.171875 -255.828125 356.046875 -242.640625 L 408.796875 -227.46875 L 494.5 -74.5 L 563.078125 -42.859375 Z M 541.984375 0 "/></g></g></g><g fill="#000000" fill-opacity="1"><g transform="translate(7531.479118, 1495.703559)"><g/></g></g><g fill="#000000" fill-opacity="1"><g transform="translate(7715.435035, 1495.703559)"><g><path d="M 403.515625 -282.203125 C 435.160156 -270.328125 460.101562 -252.851562 478.34375 -229.78125 C 496.59375 -206.707031 505.71875 -180.882812 505.71875 -152.3125 C 505.71875 -124.613281 493.738281 -98.566406 469.78125 -74.171875 C 445.820312 -49.773438 416.039062 -30.320312 380.4375 -15.8125 C 344.832031 -1.3125 310.769531 5.9375 278.25 5.9375 C 256.269531 5.9375 234.726562 4.835938 213.625 2.640625 C 178.457031 0.441406 151.207031 -0.65625 131.875 -0.65625 L 31.65625 -0.65625 L 31.65625 -37.578125 L 93.625 -86.375 L 93.625 -456.921875 L 20.4375 -476.046875 L 42.203125 -518.90625 L 131.203125 -518.90625 C 171.203125 -518.90625 210.546875 -520.222656 249.234375 -522.859375 C 279.117188 -524.617188 301.097656 -525.5 315.171875 -525.5 C 347.691406 -525.5 376.367188 -519.785156 401.203125 -508.359375 C 426.046875 -496.929688 445.28125 -481.4375 458.90625 -461.875 C 472.53125 -442.3125 479.34375 -420.441406 479.34375 -396.265625 C 479.34375 -374.722656 472.414062 -354.0625 458.5625 -334.28125 C 444.71875 -314.5 426.367188 -296.921875 403.515625 -281.546875 Z M 352.75 -361.328125 C 352.75 -392.972656 345.273438 -418.460938 330.328125 -437.796875 C 315.378906 -457.140625 293.179688 -466.8125 263.734375 -466.8125 C 245.710938 -466.8125 228.789062 -463.078125 212.96875 -455.609375 L 212.96875 -286.15625 L 286.8125 -286.15625 C 308.351562 -286.15625 324.726562 -292.523438 335.9375 -305.265625 C 347.144531 -318.015625 352.75 -336.703125 352.75 -361.328125 Z M 297.359375 -59.34375 C 322.859375 -59.34375 342.96875 -65.9375 357.6875 -79.125 C 372.414062 -92.3125 379.78125 -110.332031 379.78125 -133.1875 C 379.78125 -163.070312 371.535156 -187.578125 355.046875 -206.703125 C 338.566406 -225.828125 314.066406 -236.265625 281.546875 -238.015625 L 212.96875 -238.015625 L 212.96875 -73.84375 C 238.019531 -64.175781 265.929688 -59.34375 296.703125 -59.34375 Z M 297.359375 -59.34375 "/></g></g></g><g fill="#000000" fill-opacity="1"><g transform="translate(8239.610532, 1495.703559)"><g><path d="M 541.984375 0 L 398.90625 0 L 271.65625 -228.140625 L 242.640625 -245.9375 L 259.125 -278.25 L 289.453125 -278.25 C 313.191406 -278.25 331.875 -285.5 345.5 -300 C 359.125 -314.507812 365.9375 -334.953125 365.9375 -361.328125 C 365.9375 -392.085938 357.691406 -417.25 341.203125 -436.8125 C 324.722656 -456.375 300.660156 -466.15625 269.015625 -466.15625 C 249.234375 -466.15625 230.769531 -460 213.625 -447.6875 L 213.625 -63.296875 L 286.8125 -42.203125 L 265.71875 0.65625 L 32.3125 0.65625 L 32.3125 -36.265625 L 94.28125 -88.359375 L 94.28125 -454.28125 L 21.09375 -474.734375 L 42.859375 -517.578125 L 152.3125 -517.578125 C 190.550781 -517.578125 228.132812 -518.898438 265.0625 -521.546875 C 291.425781 -523.296875 311.203125 -524.171875 324.390625 -524.171875 C 358.242188 -524.171875 388.242188 -518.128906 414.390625 -506.046875 C 440.546875 -493.960938 460.765625 -477.585938 475.046875 -456.921875 C 489.335938 -436.265625 496.484375 -413.1875 496.484375 -387.6875 C 496.484375 -356.925781 482.859375 -328.359375 455.609375 -301.984375 C 428.359375 -275.609375 395.171875 -255.828125 356.046875 -242.640625 L 408.796875 -227.46875 L 494.5 -74.5 L 563.078125 -42.859375 Z M 541.984375 0 "/></g></g></g><g fill="#000000" fill-opacity="1"><g transform="translate(8798.071136, 1495.703559)"><g><path d="M 265.0625 -0.65625 L 31.65625 -0.65625 L 31.65625 -37.578125 L 93.625 -89.671875 L 93.625 -454.953125 L 20.4375 -476.046875 L 42.203125 -518.90625 L 275.609375 -518.90625 L 275.609375 -481.984375 L 212.96875 -429.234375 L 212.96875 -63.953125 L 286.15625 -43.515625 Z M 265.0625 -0.65625 "/></g></g></g><g fill="#000000" fill-opacity="1"><g transform="translate(9104.66421, 1495.703559)"><g><path d="M 318.46875 -524.84375 C 367.695312 -524.84375 411.320312 -513.960938 449.34375 -492.203125 C 487.363281 -470.441406 516.8125 -440.21875 537.6875 -401.53125 C 558.570312 -362.851562 569.015625 -319.117188 569.015625 -270.328125 C 569.015625 -220.222656 553.300781 -173.957031 521.875 -131.53125 C 490.445312 -89.113281 451.4375 -55.488281 404.84375 -30.65625 C 358.25 -5.820312 313.851562 6.59375 271.65625 6.59375 C 251.425781 6.59375 231.425781 5.492188 211.65625 3.296875 C 178.6875 1.097656 153.410156 0 135.828125 0 L 31.65625 0 L 31.65625 -36.921875 L 93.625 -85.71875 L 93.625 -452.96875 L 20.4375 -475.390625 L 42.203125 -518.25 L 135.171875 -518.25 C 175.609375 -518.25 215.164062 -519.566406 253.84375 -522.203125 C 283.738281 -523.960938 305.28125 -524.84375 318.46875 -524.84375 Z M 290.765625 -54.71875 C 318.460938 -54.71875 343.628906 -62.628906 366.265625 -78.453125 C 388.898438 -94.285156 406.703125 -116.265625 419.671875 -144.390625 C 432.640625 -172.523438 439.125 -204.175781 439.125 -239.34375 C 439.125 -281.539062 432.859375 -319.671875 420.328125 -353.734375 C 407.804688 -387.804688 388.6875 -415.0625 362.96875 -435.5 C 337.25 -455.9375 305.488281 -466.15625 267.6875 -466.15625 C 247.90625 -466.15625 229.664062 -460.878906 212.96875 -450.328125 L 212.96875 -67.25 C 235.382812 -58.894531 261.097656 -54.71875 290.109375 -54.71875 Z M 290.765625 -54.71875 "/></g></g></g><g fill="#000000" fill-opacity="1"><g transform="translate(9711.257136, 1495.703559)"><g><path d="M 537.359375 -115.390625 L 555.171875 -75.828125 L 433.84375 -1.3125 C 412.3125 4.394531 391.65625 8.238281 371.875 10.21875 C 352.09375 12.195312 330.769531 13.1875 307.90625 13.1875 C 255.164062 13.1875 208.351562 1.976562 167.46875 -20.4375 C 126.59375 -42.851562 94.945312 -73.734375 72.53125 -113.078125 C 50.113281 -152.421875 38.90625 -197.144531 38.90625 -247.25 C 38.90625 -298.675781 55.609375 -346.257812 89.015625 -390 C 122.421875 -433.738281 164.066406 -468.242188 213.953125 -493.515625 C 263.847656 -518.796875 311.210938 -531.4375 356.046875 -531.4375 C 383.296875 -531.4375 415.378906 -528.140625 452.296875 -521.546875 C 489.222656 -514.953125 516.257812 -507.914062 533.40625 -500.4375 L 533.40625 -343.515625 L 471.4375 -343.515625 C 432.75 -418.242188 381.535156 -455.609375 317.796875 -455.609375 C 290.109375 -455.609375 264.945312 -447.914062 242.3125 -432.53125 C 219.675781 -417.144531 201.765625 -396.046875 188.578125 -369.234375 C 175.390625 -342.421875 168.796875 -312.3125 168.796875 -278.90625 C 168.796875 -239.78125 175.273438 -203.84375 188.234375 -171.09375 C 201.203125 -138.351562 220.875 -112.203125 247.25 -92.640625 C 273.625 -73.078125 306.15625 -63.296875 344.84375 -63.296875 C 346.59375 -63.296875 354.71875 -63.296875 369.21875 -63.296875 C 383.726562 -63.296875 399.773438 -64.613281 417.359375 -67.25 L 417.359375 -199.125 L 311.203125 -224.84375 L 332.96875 -267.6875 L 599.34375 -267.6875 L 599.34375 -230.765625 L 537.359375 -178.015625 Z M 537.359375 -115.390625 "/></g></g></g><g fill="#000000" fill-opacity="1"><g transform="translate(10331.695457, 1495.703559)"><g><path d="M 448.359375 0.65625 L 31.65625 0.65625 L 31.65625 -36.265625 L 93.625 -85.0625 L 93.625 -453.625 L 20.4375 -475.390625 L 42.203125 -518.25 L 441.765625 -518.25 L 489.234375 -530.109375 L 489.234375 -361.984375 L 452.96875 -347.46875 L 371.875 -468.140625 L 212.96875 -468.140625 L 212.96875 -290.109375 L 291.4375 -290.109375 L 339.5625 -363.953125 L 376.484375 -363.953125 L 376.484375 -172.09375 L 333.625 -150.328125 L 290.765625 -239.34375 L 212.96875 -239.34375 L 212.96875 -50.109375 L 366.59375 -50.109375 L 459.5625 -184.609375 L 495.828125 -169.453125 L 495.828125 12.53125 Z M 448.359375 0.65625 "/></g></g></g></svg>